<svg xmlns="http://www.w3.org/2000/svg" xmlns:xlink="http://www.w3.org/1999/xlink" version="1.1" x="0px" y="0px" viewBox="0 0 300 200" style="enable-background:new 0 0 300 200;" xml:space="preserve" class="logo-stacked replaced-svg">
	<g id="logo-stacked" fill="#fff">
		<g class="badge">
				<path class="st4" d="M26.7,137.8H20l-0.8,1.8c-0.3,0.6-0.4,1.1-0.4,1.5c0,0.5,0.2,0.9,0.6,1.2c0.3,0.2,0.9,0.3,1.9,0.3v0.5H15      v-0.5c0.7-0.1,1.2-0.4,1.7-0.8c0.4-0.5,1-1.4,1.6-2.9l6.8-15.1h0.3l6.8,15.5c0.7,1.5,1.2,2.4,1.6,2.8c0.3,0.3,0.8,0.5,1.3,0.5      v0.5H26v-0.5h0.4c0.7,0,1.3-0.1,1.6-0.3c0.2-0.1,0.3-0.4,0.3-0.6c0-0.2,0-0.3-0.1-0.5c0-0.1-0.2-0.4-0.4-1L26.7,137.8L26.7,137.8      z M26.2,136.8l-2.8-6.5l-2.9,6.5H26.2L26.2,136.8z"></path>
				<path class="st4" d="M46.7,130.1v10.2c0,1,0.1,1.6,0.3,1.9c0.2,0.2,0.6,0.4,1.1,0.5v0.5h-5.3v-1.7c-0.6,0.7-1.2,1.3-1.9,1.6      c-0.6,0.3-1.3,0.5-2.1,0.5c-0.7,0-1.4-0.2-2-0.7s-1-1-1.1-1.6c-0.2-0.6-0.3-1.7-0.3-3.2v-5.2c0-1-0.1-1.6-0.3-1.8      s-0.6-0.4-1.1-0.5v-0.5h5.3v8.9c0,0.9,0,1.5,0.1,1.8s0.2,0.5,0.4,0.6s0.4,0.2,0.7,0.2s0.6-0.1,0.9-0.3c0.4-0.2,0.8-0.7,1.3-1.5      v-7c0-1-0.1-1.6-0.3-1.8s-0.6-0.4-1.1-0.5V130h5.4V130.1z"></path>
				<path class="st4" d="M57.3,129.7l0.2,4.5H57c-0.6-1.3-1.2-2.2-1.8-2.7s-1.2-0.7-1.8-0.7c-0.4,0-0.7,0.1-1,0.4      c-0.3,0.3-0.4,0.5-0.4,0.9c0,0.3,0.1,0.5,0.3,0.7c0.3,0.4,1.1,1,2.5,2c1.4,0.9,2.3,1.7,2.7,2.4c0.4,0.6,0.7,1.4,0.7,2.2      c0,0.7-0.2,1.4-0.5,2.1c-0.4,0.7-0.9,1.2-1.5,1.6c-0.7,0.4-1.4,0.6-2.2,0.6c-0.6,0-1.5-0.2-2.5-0.6c-0.3-0.1-0.5-0.2-0.6-0.2      c-0.3,0-0.6,0.2-0.8,0.7h-0.5l-0.2-4.7h0.5c0.4,1.2,1,2.2,1.7,2.8s1.4,0.9,2.1,0.9c0.4,0,0.8-0.1,1.1-0.4c0.3-0.3,0.4-0.6,0.4-1      s-0.1-0.8-0.4-1.2c-0.3-0.3-0.9-0.8-1.9-1.5c-1.4-1-2.3-1.7-2.8-2.3c-0.6-0.8-0.9-1.6-0.9-2.5c0-1,0.3-1.9,1-2.7s1.7-1.2,3-1.2      c0.7,0,1.4,0.2,2.1,0.5c0.3,0.1,0.5,0.2,0.6,0.2c0.2,0,0.3,0,0.4-0.1c0.1-0.1,0.3-0.3,0.5-0.6L57.3,129.7L57.3,129.7z"></path>
				<path class="st4" d="M64.2,125.3v4.8h3.1v1.4h-3.1v8.1c0,0.8,0,1.2,0.1,1.5c0.1,0.2,0.2,0.4,0.4,0.5c0.2,0.1,0.3,0.2,0.5,0.2      c0.6,0,1.2-0.5,1.7-1.4l0.4,0.3c-0.8,1.8-2,2.7-3.7,2.7c-0.8,0-1.5-0.2-2.1-0.7s-0.9-1-1.1-1.6c-0.1-0.3-0.1-1.2-0.1-2.6v-7.1      h-1.7V131c1.2-0.8,2.2-1.7,3-2.6c0.8-0.9,1.6-1.9,2.2-3.1L64.2,125.3L64.2,125.3z"></path>
				<path class="st4" d="M73.7,130.1v3c0.9-1.4,1.6-2.2,2.3-2.7c0.7-0.4,1.3-0.7,1.9-0.7c0.5,0,0.9,0.2,1.2,0.5      c0.3,0.3,0.5,0.8,0.5,1.4c0,0.6-0.2,1.1-0.5,1.5c-0.3,0.3-0.7,0.5-1.1,0.5c-0.5,0-0.9-0.2-1.3-0.5s-0.6-0.5-0.6-0.5      c-0.1-0.1-0.2-0.1-0.3-0.1c-0.3,0-0.5,0.1-0.8,0.3c-0.4,0.3-0.7,0.8-0.9,1.4c-0.3,0.9-0.4,1.9-0.4,3v3v0.8c0,0.5,0,0.9,0.1,1      c0.1,0.3,0.3,0.4,0.5,0.6c0.2,0.1,0.6,0.2,1.1,0.2v0.5h-7.1v-0.5c0.6,0,0.9-0.2,1.1-0.5s0.3-1,0.3-2.1V133c0-0.7,0-1.2-0.1-1.4      c-0.1-0.3-0.2-0.5-0.4-0.6c-0.2-0.1-0.5-0.2-0.9-0.3v-0.5L73.7,130.1L73.7,130.1z"></path>
				<path class="st4" d="M86.8,141.3c-1.6,1.4-3,2.1-4.3,2.1c-0.7,0-1.4-0.2-1.9-0.7s-0.7-1.1-0.7-1.8c0-1,0.4-1.9,1.3-2.7      s2.7-1.9,5.6-3.2v-1.3c0-1-0.1-1.6-0.2-1.9c-0.1-0.3-0.3-0.5-0.6-0.7c-0.3-0.2-0.6-0.3-1-0.3c-0.6,0-1.1,0.1-1.5,0.4      c-0.2,0.2-0.4,0.4-0.4,0.6c0,0.2,0.1,0.4,0.4,0.7c0.4,0.4,0.5,0.8,0.5,1.2c0,0.5-0.2,0.8-0.5,1.2c-0.3,0.3-0.8,0.5-1.3,0.5      c-0.6,0-1.1-0.2-1.5-0.5c-0.4-0.4-0.6-0.8-0.6-1.2c0-0.7,0.3-1.3,0.8-1.9c0.5-0.6,1.3-1.1,2.2-1.4c1-0.3,1.9-0.5,3-0.5      c1.2,0,2.2,0.3,2.9,0.8c0.7,0.5,1.2,1.1,1.4,1.7c0.1,0.4,0.2,1.3,0.2,2.7v5.1c0,0.6,0,1,0.1,1.1c0,0.1,0.1,0.3,0.2,0.3      c0.1,0.1,0.2,0.1,0.3,0.1c0.2,0,0.5-0.2,0.7-0.5l0.4,0.3c-0.5,0.7-1,1.2-1.5,1.5s-1.1,0.5-1.7,0.5c-0.7,0-1.3-0.2-1.7-0.5      C87.1,142.5,86.9,142,86.8,141.3L86.8,141.3z M86.8,140.2v-4.4c-1.1,0.7-2,1.4-2.5,2.1c-0.4,0.5-0.5,1-0.5,1.5      c0,0.4,0.2,0.8,0.5,1.1c0.2,0.3,0.6,0.4,1,0.4C85.6,141,86.2,140.8,86.8,140.2L86.8,140.2z"></path>
				<path class="st4" d="M98.1,124.2v16.2c0,0.9,0.1,1.5,0.3,1.8c0.2,0.3,0.6,0.4,1.3,0.4v0.5h-7.1v-0.5c0.6,0,1-0.2,1.3-0.5      c0.2-0.2,0.3-0.8,0.3-1.7v-13.5c0-0.9-0.1-1.5-0.3-1.7c-0.2-0.3-0.6-0.4-1.2-0.4v-0.5L98.1,124.2L98.1,124.2z"></path>
				<path class="st4" d="M104.1,123.8c0.6,0,1.1,0.2,1.5,0.6s0.6,0.9,0.6,1.5s-0.2,1.1-0.6,1.5s-0.9,0.6-1.5,0.6s-1.1-0.2-1.5-0.6      s-0.6-0.9-0.6-1.5s0.2-1.1,0.6-1.5S103.5,123.8,104.1,123.8L104.1,123.8z M106.1,130.1v10.4c0,0.9,0.1,1.5,0.3,1.8      c0.2,0.3,0.6,0.4,1.3,0.4v0.5h-7.1v-0.5c0.6,0,1-0.2,1.3-0.5c0.2-0.2,0.3-0.8,0.3-1.7v-7.6c0-0.9-0.1-1.5-0.3-1.8      c-0.2-0.3-0.6-0.4-1.2-0.4v-0.5L106.1,130.1L106.1,130.1z"></path>
				<path class="st4" d="M115.3,141.3c-1.6,1.4-3,2.1-4.3,2.1c-0.7,0-1.4-0.2-1.9-0.7s-0.7-1.1-0.7-1.8c0-1,0.4-1.9,1.3-2.7      s2.7-1.9,5.6-3.2v-1.3c0-1-0.1-1.6-0.2-1.9c-0.1-0.3-0.3-0.5-0.6-0.7c-0.3-0.2-0.6-0.3-1-0.3c-0.6,0-1.1,0.1-1.5,0.4      c-0.2,0.2-0.4,0.4-0.4,0.6c0,0.2,0.1,0.4,0.4,0.7c0.4,0.4,0.5,0.8,0.5,1.2c0,0.5-0.2,0.8-0.5,1.2c-0.3,0.3-0.8,0.5-1.3,0.5      c-0.6,0-1.1-0.2-1.5-0.5c-0.4-0.4-0.6-0.8-0.6-1.2c0-0.7,0.3-1.3,0.8-1.9c0.5-0.6,1.3-1.1,2.2-1.4c1-0.3,1.9-0.5,3-0.5      c1.2,0,2.2,0.3,2.9,0.8c0.7,0.5,1.2,1.1,1.4,1.7c0.1,0.4,0.2,1.3,0.2,2.7v5.1c0,0.6,0,1,0.1,1.1c0,0.1,0.1,0.3,0.2,0.3      c0.1,0.1,0.2,0.1,0.3,0.1c0.2,0,0.5-0.2,0.7-0.5l0.4,0.3c-0.5,0.7-1,1.2-1.5,1.5s-1.1,0.5-1.7,0.5c-0.7,0-1.3-0.2-1.7-0.5      C115.6,142.5,115.4,142,115.3,141.3L115.3,141.3z M115.3,140.2v-4.4c-1.1,0.7-2,1.4-2.5,2.1c-0.4,0.5-0.5,1-0.5,1.5      c0,0.4,0.2,0.8,0.5,1.1c0.2,0.3,0.6,0.4,1,0.4C114.1,141,114.7,140.8,115.3,140.2L115.3,140.2z"></path>
				<path class="st4" d="M126.6,130.1v1.7c0.7-0.7,1.3-1.3,1.9-1.6c0.6-0.3,1.3-0.5,2-0.5c0.8,0,1.6,0.2,2.1,0.7      c0.6,0.5,0.9,1,1.1,1.7c0.1,0.5,0.2,1.6,0.2,3.1v5.1c0,1,0.1,1.6,0.3,1.9c0.2,0.2,0.6,0.4,1.1,0.5v0.5h-6.6v-0.5      c0.5-0.1,0.8-0.3,1.1-0.6c0.1-0.2,0.2-0.8,0.2-1.7v-5.8c0-1.1,0-1.7-0.1-2s-0.2-0.5-0.4-0.6c-0.2-0.2-0.4-0.2-0.7-0.2      c-0.8,0-1.5,0.6-2.2,1.7v7c0,1,0.1,1.6,0.3,1.9c0.2,0.3,0.5,0.4,1,0.5v0.5h-6.6v-0.5c0.5-0.1,0.9-0.2,1.2-0.5      c0.2-0.2,0.2-0.8,0.2-1.8v-7.4c0-1-0.1-1.6-0.3-1.8c-0.2-0.2-0.6-0.4-1.1-0.5v-0.5h5.3V130.1z"></path>
				<path class="st4" d="M161.1,123.8v6.7h-0.5c-0.6-1.8-1.6-3.2-2.8-4.2c-1.2-0.9-2.6-1.4-4.1-1.4c-1.4,0-2.6,0.4-3.5,1.2      c-0.9,0.8-1.6,1.9-2,3.3s-0.6,2.9-0.6,4.4c0,1.8,0.2,3.4,0.6,4.8c0.4,1.4,1.1,2.4,2.1,3s2.1,1,3.4,1c0.5,0,0.9,0,1.4-0.1      s1-0.2,1.5-0.4v-3.9c0-0.7-0.1-1.2-0.2-1.4c-0.1-0.2-0.3-0.4-0.6-0.6c-0.3-0.2-0.7-0.3-1.2-0.3h-0.5v-0.5h9.2v0.5      c-0.7,0-1.2,0.1-1.5,0.3c-0.3,0.1-0.5,0.4-0.6,0.7c-0.1,0.2-0.1,0.6-0.1,1.3v3.9c-1.2,0.5-2.5,0.9-3.8,1.2s-2.7,0.4-4.1,0.4      c-1.8,0-3.3-0.2-4.5-0.7s-2.2-1.1-3.1-1.9c-0.9-0.8-1.6-1.7-2.1-2.7c-0.7-1.3-1-2.7-1-4.3c0-2.9,1-5.3,3-7.2c2-2,4.5-2.9,7.6-2.9      c0.9,0,1.8,0.1,2.5,0.2c0.4,0.1,1.1,0.3,2,0.6c0.9,0.3,1.5,0.5,1.6,0.5c0.3,0,0.5-0.1,0.7-0.3c0.2-0.2,0.4-0.6,0.6-1.1      L161.1,123.8L161.1,123.8z"></path>
				<path class="st4" d="M170.2,129.7c1.1,0,2.2,0.3,3.2,0.9c1,0.6,1.7,1.4,2.2,2.5s0.8,2.3,0.8,3.6c0,1.9-0.5,3.4-1.4,4.7      c-1.1,1.5-2.7,2.3-4.7,2.3s-3.5-0.7-4.5-2.1c-1.1-1.4-1.6-3-1.6-4.8c0-1.9,0.5-3.5,1.6-4.9C166.8,130.4,168.3,129.7,170.2,129.7      L170.2,129.7z M170.2,130.7c-0.5,0-0.9,0.2-1.2,0.5c-0.3,0.4-0.6,1.1-0.7,2.1c-0.1,1.1-0.2,2.5-0.2,4.4c0,1,0.1,1.9,0.2,2.8      c0.1,0.7,0.3,1.2,0.7,1.5c0.3,0.3,0.7,0.5,1.1,0.5c0.4,0,0.8-0.1,1-0.3c0.4-0.3,0.6-0.8,0.7-1.3c0.2-0.9,0.3-2.7,0.3-5.4      c0-1.6-0.1-2.7-0.3-3.3s-0.4-1-0.8-1.3C170.9,130.8,170.6,130.7,170.2,130.7L170.2,130.7z"></path>
				<path class="st4" d="M182.5,143.6l-4.4-10.1c-0.5-1.2-0.9-2-1.2-2.3c-0.2-0.2-0.5-0.4-1-0.5v-0.5h6.9v0.5c-0.4,0-0.7,0.1-0.9,0.2      c-0.2,0.2-0.3,0.4-0.3,0.7s0.2,1,0.6,1.9l2.2,4.9l1.7-4.2c0.5-1.2,0.7-2.1,0.7-2.6c0-0.3-0.1-0.5-0.3-0.7s-0.6-0.3-1.1-0.3v-0.5      h4.3v0.5c-0.4,0.1-0.7,0.2-1,0.5s-0.7,1-1.2,2.2l-4.4,10.3L182.5,143.6L182.5,143.6z"></path>
				<path class="st4" d="M200,136.2h-7.2c0.1,1.7,0.5,3.1,1.4,4.1c0.6,0.8,1.4,1.2,2.3,1.2c0.6,0,1.1-0.2,1.5-0.5      c0.5-0.3,0.9-0.9,1.5-1.7l0.5,0.3c-0.7,1.4-1.5,2.5-2.3,3.1c-0.9,0.6-1.8,0.9-3,0.9c-1.9,0-3.4-0.7-4.4-2.2      c-0.8-1.2-1.2-2.7-1.2-4.5c0-2.2,0.6-3.9,1.8-5.2s2.6-1.9,4.2-1.9c1.3,0,2.5,0.5,3.4,1.6C199.4,132.4,199.9,134,200,136.2      L200,136.2z M196.5,135.2c0-1.5-0.1-2.5-0.2-3.1c-0.2-0.6-0.4-1-0.8-1.3c-0.2-0.2-0.5-0.3-0.8-0.3c-0.5,0-0.9,0.2-1.2,0.7      c-0.6,0.8-0.8,2-0.8,3.4v0.5h3.8V135.2z"></path>
				<path class="st4" d="M206.2,130.1v3c0.9-1.4,1.6-2.2,2.3-2.7c0.7-0.4,1.3-0.7,1.9-0.7c0.5,0,0.9,0.2,1.2,0.5s0.5,0.8,0.5,1.4      c0,0.6-0.2,1.1-0.5,1.5c-0.3,0.3-0.7,0.5-1.1,0.5c-0.5,0-0.9-0.2-1.3-0.5c-0.4-0.3-0.6-0.5-0.6-0.5c-0.1-0.1-0.2-0.1-0.3-0.1      c-0.3,0-0.5,0.1-0.8,0.3c-0.4,0.3-0.7,0.8-0.9,1.4c-0.3,0.9-0.4,1.9-0.4,3v3v0.8c0,0.5,0,0.9,0.1,1c0.1,0.3,0.3,0.4,0.5,0.6      c0.2,0.1,0.6,0.2,1.1,0.2v0.5h-7.1v-0.5c0.6,0,1-0.2,1.1-0.5c0.2-0.3,0.3-1,0.3-2.1V133c0-0.7,0-1.2-0.1-1.4      c-0.1-0.3-0.2-0.5-0.4-0.6s-0.5-0.2-0.9-0.3v-0.5L206.2,130.1L206.2,130.1z"></path>
				<path class="st4" d="M218.2,130.1v1.7c0.7-0.7,1.3-1.3,1.9-1.6c0.6-0.3,1.3-0.5,2-0.5c0.8,0,1.6,0.2,2.1,0.7      c0.6,0.5,0.9,1,1.1,1.7c0.1,0.5,0.2,1.6,0.2,3.1v5.1c0,1,0.1,1.6,0.3,1.9c0.2,0.2,0.6,0.4,1.1,0.5v0.5h-6.6v-0.5      c0.5-0.1,0.8-0.3,1.1-0.6c0.1-0.2,0.2-0.8,0.2-1.7v-5.8c0-1.1,0-1.7-0.1-2s-0.2-0.5-0.4-0.6c-0.2-0.2-0.4-0.2-0.7-0.2      c-0.8,0-1.5,0.6-2.2,1.7v7c0,1,0.1,1.6,0.3,1.9c0.2,0.3,0.5,0.4,1,0.5v0.5h-6.6v-0.5c0.6-0.1,0.9-0.2,1.2-0.5      c0.2-0.2,0.2-0.8,0.2-1.8v-7.4c0-1-0.1-1.6-0.3-1.8s-0.6-0.4-1.1-0.5v-0.5h5.3V130.1z"></path>
				<path class="st4" d="M233.4,130.1v1.7c0.7-0.8,1.4-1.3,2-1.6s1.3-0.5,2-0.5c0.8,0,1.5,0.2,2.1,0.6c0.6,0.4,1,1,1.3,1.8      c0.7-0.8,1.5-1.4,2.1-1.8c0.7-0.4,1.4-0.6,2.2-0.6c0.9,0,1.6,0.2,2.2,0.6c0.5,0.4,0.9,0.9,1.1,1.6c0.2,0.6,0.3,1.6,0.3,3v5.4      c0,1,0.1,1.6,0.3,1.9c0.2,0.2,0.6,0.4,1.1,0.5v0.5h-6.8v-0.5c0.5,0,0.9-0.3,1.2-0.6c0.2-0.3,0.3-0.8,0.3-1.7v-5.6      c0-1.2,0-1.9-0.1-2.2s-0.2-0.5-0.4-0.7s-0.4-0.2-0.7-0.2c-0.4,0-0.8,0.1-1.2,0.4c-0.4,0.3-0.8,0.7-1.2,1.3v7      c0,0.9,0.1,1.5,0.2,1.8c0.2,0.3,0.6,0.5,1.2,0.6v0.5h-6.8v-0.5c0.4,0,0.6-0.1,0.9-0.3c0.2-0.2,0.4-0.4,0.4-0.6      c0.1-0.2,0.1-0.7,0.1-1.5v-5.6c0-1.2,0-1.9-0.1-2.2s-0.3-0.5-0.5-0.7s-0.4-0.3-0.7-0.3c-0.4,0-0.7,0.1-1,0.3      c-0.4,0.3-0.9,0.8-1.4,1.5v7c0,0.9,0.1,1.5,0.3,1.8s0.6,0.5,1.1,0.5v0.5h-6.7v-0.5c0.5-0.1,0.9-0.2,1.2-0.5      c0.2-0.2,0.2-0.8,0.2-1.8V133c0-1-0.1-1.6-0.3-1.8s-0.6-0.4-1.1-0.5v-0.5L233.4,130.1L233.4,130.1z"></path>
				<path class="st4" d="M261.7,136.2h-7.2c0.1,1.7,0.5,3.1,1.4,4.1c0.6,0.8,1.4,1.2,2.3,1.2c0.6,0,1.1-0.2,1.5-0.5      c0.5-0.3,0.9-0.9,1.5-1.7l0.5,0.3c-0.7,1.4-1.5,2.5-2.3,3.1c-0.9,0.6-1.8,0.9-3,0.9c-1.9,0-3.4-0.7-4.4-2.2      c-0.8-1.2-1.2-2.7-1.2-4.5c0-2.2,0.6-3.9,1.8-5.2s2.6-1.9,4.2-1.9c1.3,0,2.5,0.5,3.4,1.6C261.1,132.4,261.7,134,261.7,136.2      L261.7,136.2z M258.3,135.2c0-1.5-0.1-2.5-0.2-3.1c-0.2-0.6-0.4-1-0.8-1.3c-0.2-0.2-0.5-0.3-0.8-0.3c-0.5,0-0.9,0.2-1.2,0.7      c-0.6,0.8-0.8,2-0.8,3.4v0.5h3.8V135.2z"></path>
				<path class="st4" d="M267.6,130.1v1.7c0.7-0.7,1.3-1.3,1.9-1.6s1.3-0.5,2-0.5c0.8,0,1.6,0.2,2.1,0.7c0.6,0.5,0.9,1,1.1,1.7      c0.2,0.5,0.2,1.6,0.2,3.1v5.1c0,1,0.1,1.6,0.3,1.9c0.2,0.2,0.6,0.4,1.1,0.5v0.5h-6.6v-0.5c0.5-0.1,0.8-0.3,1.1-0.6      c0.2-0.2,0.2-0.8,0.2-1.7v-5.8c0-1.1,0-1.7-0.1-2s-0.2-0.5-0.4-0.6c-0.2-0.2-0.4-0.2-0.7-0.2c-0.8,0-1.5,0.6-2.2,1.7v7      c0,1,0.1,1.6,0.3,1.9c0.2,0.3,0.5,0.4,1,0.5v0.5h-6.6v-0.5c0.6-0.1,0.9-0.2,1.2-0.5c0.2-0.2,0.2-0.8,0.2-1.8v-7.4      c0-1-0.1-1.6-0.3-1.8c-0.2-0.2-0.6-0.4-1.1-0.5v-0.5h5.3V130.1z"></path>
				<path class="st4" d="M281.9,125.3v4.8h3.1v1.4h-3.1v8.1c0,0.8,0,1.2,0.1,1.5c0.1,0.2,0.2,0.4,0.4,0.5c0.2,0.1,0.3,0.2,0.5,0.2      c0.6,0,1.2-0.5,1.7-1.4l0.4,0.3c-0.8,1.8-2,2.7-3.7,2.7c-0.8,0-1.5-0.2-2.1-0.7s-0.9-1-1.1-1.6c-0.1-0.3-0.1-1.2-0.1-2.6v-7.1      h-1.7V131c1.2-0.8,2.2-1.7,3-2.6c0.8-0.9,1.6-1.9,2.2-3.1L281.9,125.3L281.9,125.3z"></path>
				<path class="st4" d="M127.4,90.4c-0.1,0.2-0.2,0.3-0.4,0.4"></path>
				<path class="st4" d="M130.7,64.8c0.4,0,0.7-0.3,0.7-0.7c0-0.4-0.3-0.7-0.7-0.7s-0.7,0.3-0.7,0.7C130,64.5,130.3,64.8,130.7,64.8      L130.7,64.8z"></path>
				<path class="st4" d="M162.4,35.9L162.4,35.9h-24.7l0,0l0,0v19.9c0,1.9,0.8,3.6,1.9,4.1l9.5,5.7c0.2,0.2,0.5,0.4,0.9,0.4      c0.3,0,0.6-0.1,0.8-0.3l9.6-5.8c1.1-0.5,1.9-2.2,1.9-4.1L162.4,35.9L162.4,35.9L162.4,35.9z M145.9,41.7h-2.1v-5.1h2.1V41.7      L145.9,41.7z M144.4,43.4l0.3-0.3l-0.2-0.3h0.4l0.2-0.4l0.2,0.4h0.4l-0.2,0.3l0.3,0.3l-0.4,0.1V44l-0.4-0.3l-0.4,0.3v-0.4      L144.4,43.4L144.4,43.4z M138.4,49.8V45h2.6v4.8H138.4L138.4,49.8z M138.8,42.8h0.4l0.2-0.4l0.2,0.4h0.4l-0.2,0.3l0.3,0.3      l-0.4,0.1V44l-0.4-0.3l-0.4,0.3v-0.4l-0.4-0.1l0.3-0.3L138.8,42.8L138.8,42.8z M141.8,47.7h0.4l0.2-0.4l0.2,0.4h0.4l-0.2,0.3      l0.3,0.3l-0.4,0.1v0.4l-0.4-0.3l-0.4,0.3v-0.4l-0.4-0.1l0.3-0.3L141.8,47.7L141.8,47.7z M143.5,43.8c0-0.1-0.2-0.2-0.3-0.2      c-0.2,0-0.3,0.4-0.5,0.4c-0.1,0-0.2,0-0.2-0.2c0-0.1,0.3-0.2,0.4-0.3c-1.6,0-1.6,0.7-1.9,0.7c-0.4,0,0.4-0.8,0.6-1      c-0.3-0.1-0.5-0.5-0.9-0.7c0.2-0.2,0.3-0.1,0.5,0c0-0.2,0.1-0.4,0.5-0.4c0.7,0,0.5,0.7,0.6,0.7s0-0.7,0.5-0.7      c0.7,0,1.6,1.8,0.8,1.8C143.2,44.1,143.5,43.9,143.5,43.8L143.5,43.8z M141.6,38.5l0.3-0.3l-0.2-0.3h0.4l0.2-0.4l0.2,0.4h0.4      l-0.2,0.3l0.3,0.3l-0.4,0.1V39l-0.4-0.3L142,39v-0.4L141.6,38.5L141.6,38.5z M141,36.6v5.1h-2.6v-5.1H141L141,36.6z M145.9,62.9      l-5.9-3.5c-1-0.7-1.5-1.9-1.6-3.3v-5.6h7.5V62.9L145.9,62.9z M143.8,49.8V45h2.1v4.8H143.8L143.8,49.8z M153.5,63.3l-2.7,1.6l0,0      c-0.2,0.2-0.4,0.3-0.7,0.3s-0.5-0.1-0.7-0.3l-2.7-1.6V50.5h6.9v12.8H153.5z M153.5,49.8h-6.9V36.6h6.9V49.8L153.5,49.8z       M161.7,56.1c-0.1,1.4-0.6,2.6-1.6,3.3l-5.9,3.5V50.5h7.5V56.1L161.7,56.1z M161.7,49.8h-7.5V36.6h7.5V49.8L161.7,49.8z"></path>
				<path class="st4" d="M145.5,55c0-0.1-0.9,0.3-0.7,0.3c0-0.3,0.5-0.8,0.8-1c0-0.3-0.4,0-0.9,0.2c1.4-2,0.5-1.2-0.3-1      c1.3-1.4,0.9-1.3,0-0.9c0.7-0.6,0.9-1.3,0.8-1.5c-0.7,0.9-1.3,0.8-1.3,1.6c0,0.6-0.2,1.5-0.5,1.8c-0.4,0.4-0.1-1.5-1-1.5      c-0.3,0-1,0-1.3,0.4c0.2,0,0.5,0.5,0.5,0.7s0.2,0.7-0.1,0.7s-0.7-0.7-0.7-1s0-0.3,0-0.7c0-0.8-1.3-1.9-1.8-1.9      c0,0.6,0.7,0.7,0.7,1.4c-0.3,0-0.7-0.6-0.7-0.2c0,0.4,0.5,0.4,0.5,0.7S139,53,139,53.3s0.3,0.2,0.4,0.5c-0.2-0.1-0.4,0-0.4,0.1      s0.1,0.2,0.2,0.3c-0.1,0.1-0.1,0.2-0.1,0.7c0,1.6,1,2.3,1.7,2.3c0.5,0,0.4-0.4,0.5-0.5c0,0.3,0.3-0.1,0.3,0.3      c0,0.5-0.5,0.3-0.5,0.7c0,0.6,0.8,0,0.8,0.6c0,0.8-0.1,0.7-0.1,1c0,0.2,0.8-0.3,0.8-0.4c0.2,0.1,0.2,0.7,0.6,0.6      c0.2,0,0.3-0.6,0.5-0.7c-0.1,0,0.7,0.6,0.7,0.3c0-0.7-0.3-0.4-0.3-0.9s1-0.4,0.9-0.6c-0.1-0.2-0.2-0.1-0.3-0.4      c0,0.1-0.8-1.2,0.2-0.5C145.4,57.4,145.6,55.1,145.5,55L145.5,55z"></path>
				<path class="st4" d="M171.8,60.2c0.4,0,0.8-0.3,0.8-0.7s-0.4-0.7-0.8-0.7c-0.4,0-0.8,0.3-0.8,0.7S171.4,60.2,171.8,60.2      L171.8,60.2z"></path>
				<path class="st4" d="M168.5,62.2c0.4,0,0.8-0.3,0.8-0.7s-0.4-0.7-0.8-0.7c-0.4,0-0.8,0.3-0.8,0.7S168.1,62.2,168.5,62.2      L168.5,62.2z"></path>
				<path class="st4" d="M129.6,66.7c0.4,0,0.8-0.3,0.8-0.7c0-0.4-0.4-0.7-0.8-0.7c-0.4,0-0.8,0.3-0.8,0.7      C128.7,66.4,129.1,66.7,129.6,66.7L129.6,66.7z"></path>
				<path class="st4" d="M132.1,66.9c0.4,0,0.8-0.3,0.8-0.7c0-0.4-0.4-0.7-0.8-0.7c-0.4,0-0.8,0.3-0.8,0.7S131.6,66.9,132.1,66.9      L132.1,66.9z"></path>
				<path class="st4" d="M202.3,32.9c1.2,1.4,1.5,3.7,0.6,5.4c-0.5,0-0.4-0.6-0.5-1c-0.9-1.6-1.6-3.6-0.8-5.5      C202.2,31.9,202,32.6,202.3,32.9L202.3,32.9z"></path>
				<path class="st4" d="M99.3,34.8c-0.3,1-0.3,2.5,0,3.4c-0.2,0.2-0.2-0.2-0.4-0.2c-1.7-1.2-0.9-3.6-1.3-5.3      c0.1-0.1,0.3-0.2,0.4-0.1C98.8,33.2,99.1,34,99.3,34.8L99.3,34.8z"></path>
				<path class="st4" d="M206,35c0.3,0.5-0.2,1-0.6,1.2c-0.4,0.1-0.8-0.1-1.1-0.5c-0.1-0.5,0.1-0.9,0.5-1.1      C205.3,34.5,205.7,34.6,206,35L206,35z"></path>
				<path class="st4" d="M96.7,36.9c-0.1,0.4-0.2,0.8-0.6,1c-0.3,0-0.6,0-0.8-0.2c-0.3-0.3-0.3-0.7-0.2-1c0.2-0.3,0.5-0.3,0.8-0.4      C96.2,36.4,96.5,36.5,96.7,36.9L96.7,36.9z"></path>
				<path class="st4" d="M207.6,37.6c0.1,0.3,0.1,0.4,0,0.7c-0.3,0.4-0.7,0.6-1.2,0.4c-0.3-0.2-0.4-0.5-0.5-0.7      c0.1-0.3,0.4-0.6,0.7-0.8C207.1,37.2,207.4,37.4,207.6,37.6L207.6,37.6z"></path>
				<path class="st4" d="M205.2,37.7c0.3,0.2,0.1,0.6,0,0.9c-0.2,0.2-0.5,0.6-0.9,0.4c-0.2-0.2-0.5-0.2-0.6-0.5c0-0.4,0.2-0.9,0.6-1      C204.7,37.4,204.9,37.5,205.2,37.7L205.2,37.7z"></path>
				<path class="st4" d="M202,38.3c0,0.5,0,1.1-0.5,1.2c-0.5,0.2-0.9-0.3-1-0.6c0-0.4,0.2-0.9,0.6-1C201.5,37.8,201.8,38,202,38.3      L202,38.3z"></path>
				<path class="st4" d="M101.3,38.5c0.1,0.4-0.3,0.7-0.6,0.9c-0.3,0.1-0.7-0.2-0.9-0.5c-0.3-0.3,0.1-0.6,0.2-0.8      C100.5,37.7,101.2,38,101.3,38.5L101.3,38.5z"></path>
				<path class="st4" d="M98.8,38.7c0,0.3-0.2,0.7-0.5,0.8s-0.7-0.1-0.9-0.4c-0.2-0.4,0-0.8,0.4-1C98.3,37.9,98.6,38.3,98.8,38.7      L98.8,38.7z"></path>
				<path class="st4" d="M191.6,38.8c0.4,0.9,0.8,2,0.9,3.1c-0.2,0.8,0.1,1.9-0.5,2.5c-0.6-0.2-0.6-1-1-1.3c-0.8-1.5-0.1-3.3,0.2-4.8      C191.5,38.2,191.5,38.6,191.6,38.8L191.6,38.8z"></path>
				<path class="st4" d="M96.7,39.3c0.1,0.5-0.3,0.8-0.6,1.1c-0.5,0.1-0.9-0.3-1.1-0.6c0-0.4,0.2-0.9,0.6-1      C96.1,38.7,96.5,39,96.7,39.3L96.7,39.3z"></path>
				<path class="st4" d="M198.4,40.6c0.6,1.3,0.6,2.8,0.2,4.2l-0.3,0.2c-0.6-1.2-1.5-2.3-1.8-3.5c0-0.9,0.2-1.7,0.5-2.5      c0.3-0.2,0.5,0,0.6,0.3C197.8,39.8,198,40.3,198.4,40.6L198.4,40.6z"></path>
				<path class="st4" d="M203.8,39.8c0,0.4-0.2,0.9-0.6,1c-0.4,0.1-0.9,0-1-0.5c-0.1-0.4,0.1-0.8,0.5-1      C203.2,39,203.6,39.5,203.8,39.8L203.8,39.8z"></path>
				<path class="st4" d="M98.8,41.2c0,0.3-0.3,0.7-0.6,0.8c-0.3,0.3-0.6-0.2-0.9-0.3c-0.1-0.3-0.2-0.7,0-1c0.1-0.3,0.4-0.3,0.7-0.3      C98.3,40.6,98.7,40.7,98.8,41.2L98.8,41.2z"></path>
				<path class="st4" d="M100.7,40.9c0.2,0.4-0.3,0.6-0.5,0.9c-0.5,0.2-0.8-0.2-1-0.5c-0.1-0.4,0.2-0.7,0.5-1      C100.2,40.2,100.5,40.6,100.7,40.9L100.7,40.9z"></path>
				<path class="st4" d="M205,40.8c0,0.6-0.9,1.1-1,1.7c-0.5,1.2-1.5,2-2.7,2.4c-0.3,0.2-0.6,0.5-1,0.6c-0.1-0.9,0.7-1.6,1.2-2.4      C202.5,41.9,203.7,41.2,205,40.8L205,40.8z"></path>
				<path class="st4" d="M97.9,42.6c0.6,0.7,1,1.4,1.8,2c0,0.2-0.1,0.4-0.3,0.4c-2.1-0.1-3.5-2.3-4.6-3.8c0.1-0.5,0.7-0.1,1-0.1      C96.6,41.7,97.4,41.9,97.9,42.6L97.9,42.6z"></path>
				<path class="st4" d="M205.7,43.2c-0.1,1.9-1,3.8-2.7,4.7c-0.5,0.2-1,0.6-1.5,0.3c0.9-1.9,2.3-3.4,3.8-5H205.7L205.7,43.2z"></path>
				<path class="st4" d="M197.4,44.5c0.1,0.6-0.2,1-0.7,1.3c-0.5,0-0.8-0.3-1-0.7c0-0.4,0.2-0.8,0.6-1c0.1-0.1,0.3-0.1,0.5-0.1      C197,44.1,197.2,44.3,197.4,44.5L197.4,44.5z"></path>
				<path class="st4" d="M95.6,44.9c0.8,0.6,1.5,1.3,2.3,2c-0.6,0.4-1.2,0-1.9,0c-1.5-0.5-2.5-1.8-4-2.2c0-0.5,0.6-0.3,0.9-0.4      C93.9,44.2,94.7,44.7,95.6,44.9L95.6,44.9z"></path>
				<path class="st4" d="M141.6,32.1c-2.4-1-4,1.6-6.5,1.3c-0.3,0.2-0.2,0.5-0.4,0.7c-0.1,0.1-0.3,0-0.5,0c-0.1-1-0.5-2-0.6-3      c-0.3-0.4-0.1-1-0.3-1.5c-1.4-3.8,3.4-0.9,4.3-3.1c0.8-1.9-1.6-2.1-2.3-3.5v-0.6c-0.7-0.7-1.4-0.9-1.9-1.8      c0.3-1.1,0.4-2.3,0.1-3.3c0-0.3-0.2-0.6-0.6-0.5c-0.8,1.1-1.4,2-2.2,3.1c-0.8-0.6-1.6-1.4-2.5-1.9c-0.6-0.1-1.2-0.7-2-0.5      c-0.1,0.3,0,0.5,0.1,0.6c0,1.7,0.9,3,2.1,4.2l0.1,0.7c-0.8,1.8-0.6,3.8-0.8,5.7c-1.9,4.9-5.1,9.7-9.3,13.1      c-2.5,2.8-5.4,5.5-5.8,9.3c-0.1,0.6,0.1,1.3-0.4,1.8c-1.4-0.5-2.8-1.2-4-2.1c-2-1.4-4.8-1.2-6.1-3.7c-0.5-1,0.1-2,0.6-2.7      c1.5-1.4,1.2-3.9,0.5-5.5c-0.2,0-0.2,0.2-0.3,0.2c-0.1,2.6-2.2,4.3-1.4,7.1c0.2,0.8,0.6,1.3,0.8,2.1c-0.3-0.1-0.7-0.1-1-0.2      c-0.9-0.1-1.9-0.5-2.9-0.4c-2,0.9-4.7-0.2-6.3,1.6c-0.3,0-0.6,0.1-0.5,0.5c0.9,0,1.8,0.3,2.8,0.2c1.5,0.3,2.5-1,3.5-1.6h0.3      c0.4-0.4,1.2-0.2,1.7-0.3c2.7,0.3,4.8,1.6,7.1,2.9v0.2c-0.9,0.4-1.8,0.7-2.7,1.1c-1,0.7-2.1,1.7-2.4,2.9c-0.7,1.1,0.2,2,0.6,2.9      c0,0.4,0.1,1,0.5,1.1c1.4-1.5,0.1-3.3,0.3-5c0.3-1.3,1.5-1.9,2.8-2.3c2.5-1,4.2,1,6.2,2.1c0,2,0.2,3.9-0.2,5.8      c-0.6,0.2-1.4,0.3-2,0.3c-3.4,0.3-6.1,2.1-9.1,3.2c-1.4,0.5-3,0.4-4.4,1c1.1,0.3,2.2-0.1,3.3-0.1c4.2-0.6,7.4-3.9,12-3.3L112,61      c-0.5,1.1-1.2,2-2,2.8c-0.1-0.5-0.2-0.9-0.6-1.1c-0.3-0.2-0.7,0-1,0.3c-0.1,0.2-0.1,0.5,0,0.7c0.2,0.4,0.6,0.5,0.9,0.6      c-0.1,0.4-0.6,0.6-0.8,0.9c-1.2,2-3.7,1.2-5.1,2.6c-0.2,0.3-1,0.5-0.6,1c1.6,0.2,3.2-0.3,4.4-1.1c1.6-1.8,3.3-3.5,4.9-5.2      c0.3,1.4-0.1,2.8-0.9,3.9c-0.4-0.2-0.7-0.5-1.2-0.7c-0.4,0.1-0.7,0.5-0.8,0.9c0.2,0.3,0.3,0.7,0.6,0.9c-1.5,1-3.3,1.1-5,1.6      c-3.1,0.4-6.2,0.6-9.4,0.7c-1.5-0.1-3.2,0.4-4.6,0c-1.6,0.3-3.4-0.2-4.7,0.7c-0.2,0.2,0,0.4,0,0.6c2,1.3,4.7,0.3,6.9,0.7h16.9      c1.2,0,2.5-0.1,3.5-0.7c2.2-1.3,3.4-3.5,4.5-5.7c0.4-0.8,0.7-1.7,0.9-2.6c0.4-1.5,1.8-2.5,3.2-2.6c0.2,2.3-0.2,4.5-0.7,6.6      c-0.3,1.4-1.2,2.7-0.6,4.2c0.1,0.7,0.9,0.7,1.4,0.8c5.2-0.1,10.4-0.3,15.9,0.1c1,0.2,1.9,0.5,2.9,0.4c0.1-0.1,0.4-0.2,0.3-0.4      c-0.1-0.5-0.5-1.1-1-1.2c-0.1-0.3-0.5-0.2-0.6-0.3c-2.8-1.6-6.1-0.7-9.3-0.7c-1.7,0.2-3.4,0.5-4.8-0.5c-0.6-0.8-0.2-3.2-0.2-3.2      c0-1,2.4-7.8,2.7-8.4c0.1-0.6,0.3-1.3,0.3-2c0.3-0.9,0.3-2,0.3-2.9c0.2-1.4,0.9-2.7,1.3-4c0.3-0.7,0.5-1.3,0.7-2      c0.3-0.8,0.3-1.6,0.9-2.3c1.4,0.9,2.8,0.9,3.4,2.5l0.6,3.6c0,0.2,0.2,0.6,0.5,0.4c1.1-0.7,0.8-2.4,0.8-3.5c0.3-1.3-0.7-2-1.1-3.2      c-0.3-0.2-0.8-1.2-0.8-1.2c-0.2-1-2.3-1.6-1.8-2.8c0.3-1,0.5-1.9,1.5-2.5c0.1,0.1,0.2,0.2,0.2,0.3l0.5-0.4l0.1-3.6      c1.4,0,3.5,0.2,4.9,0.2c0.4,0.1,0.7,0.4,1.1,0.5l0.3-0.5l3.5-0.7C144,33.8,143.1,32.1,141.6,32.1L141.6,32.1z"></path>
				<path class="st4" d="M145.4,33.6c0.1,0,0.2,0,0.3-0.1L145.4,33.6L145.4,33.6z"></path>
				<path class="st4" d="M108,45.7c0,0.5-0.3,0.8-0.6,1c-0.3-0.1-0.6-0.2-0.8-0.5c-0.2-0.5,0.3-0.8,0.6-1      C107.5,45.2,107.9,45.3,108,45.7L108,45.7z"></path>
				<path class="st4" d="M105.2,45.7c0.3,0.3,0.3,0.7,0.2,1c-0.3,0.3-0.8,0.5-1,0.1c-0.3-0.3-0.5-0.6-0.3-0.9      C104.3,45.6,104.8,45.3,105.2,45.7L105.2,45.7z"></path>
				<path class="st4" d="M165,46.1C165.1,46.2,165.1,46.2,165,46.1"></path>
				<path class="st4" d="M197.8,46.9c0.2,0.5-0.2,0.8-0.6,1c-0.4-0.1-1-0.2-1-0.8c0-0.3,0.3-0.6,0.6-0.6      C197.3,46.3,197.6,46.6,197.8,46.9L197.8,46.9z"></path>
				<path class="st4" d="M200.1,46.8c0.1,0.2,0.4,0.6,0.1,0.8c-0.2,0.1-0.3,0.2-0.4,0.3c-0.5,0.1-0.9-0.1-1-0.5      c-0.1-0.5,0.3-0.7,0.6-0.9C199.7,46.4,199.9,46.6,200.1,46.8L200.1,46.8z"></path>
				<path class="st4" d="M94.4,47.3c-0.2,0.5-0.6,0.7-1.2,0.6c-0.1-0.1-0.3-0.3-0.3-0.6s0.1-0.6,0.5-0.7      C93.9,46.6,94.2,46.8,94.4,47.3L94.4,47.3z"></path>
				<path class="st4" d="M108.9,48.1c0,0.3-0.4,0.6-0.7,0.8c-0.4,0-0.7-0.3-0.9-0.6c0-0.3,0.2-0.8,0.5-0.9      C108.2,47.2,108.7,47.6,108.9,48.1L108.9,48.1z"></path>
				<path class="st4" d="M106.3,47.7c0.1,0.1,0.3,0.5,0.1,0.7c-0.3,0.2-0.6,0.6-1.1,0.3c-0.3-0.2-0.6-0.4-0.5-0.8      c0.2-0.2,0.4-0.4,0.6-0.5C105.9,47.4,106.1,47.6,106.3,47.7L106.3,47.7z"></path>
				<path class="st4" d="M206.7,48.3c0,0.3-0.3,0.7-0.6,0.8s-0.7,0-0.9-0.2c-0.3-0.1-0.2-0.4-0.2-0.7c0.2-0.3,0.5-0.5,0.8-0.6      C206.2,47.7,206.5,48,206.7,48.3L206.7,48.3z"></path>
				<path class="st4" d="M209.4,48.7c-0.1,0.4-0.4,0.7-0.8,0.8c-0.3,0-0.7-0.1-0.6-0.5c0-0.3,0.2-0.6,0.4-0.7      C208.8,48,209.3,48.2,209.4,48.7L209.4,48.7z"></path>
				<path class="st4" d="M99.3,49.3c0.1,0.5-0.1,0.9-0.5,1c-0.3,0.2-0.6,0-0.8-0.2c-0.2-0.2-0.4-0.6-0.2-0.9c0.1-0.4,0.5-0.3,0.7-0.5      C98.9,48.8,99.1,49,99.3,49.3L99.3,49.3z"></path>
				<path class="st4" d="M101.4,49.7c0.1,0.3-0.3,0.5-0.3,0.7c-0.2,0.1-0.5,0.3-0.8,0.1c-0.3-0.3-0.6-0.6-0.3-1      C100.3,48.8,101.2,49.1,101.4,49.7L101.4,49.7z"></path>
				<path class="st4" d="M204.1,49.4c0,0.4-0.3,0.7-0.6,1c-0.4,0.1-0.8-0.2-0.9-0.5c0-0.3,0.2-0.6,0.5-0.8      C203.5,49,203.9,49.1,204.1,49.4L204.1,49.4z"></path>
				<path class="st4" d="M207.7,50.1c-0.1,0.4,0,0.8-0.5,1.1c-0.3,0.1-0.8,0-1-0.2c-0.3-0.2-0.3-0.6-0.2-0.9c0.2-0.3,0.6-0.6,1-0.5      C207.3,49.8,207.4,50,207.7,50.1L207.7,50.1z"></path>
				<path class="st4" d="M97.6,51c0.2,0.3-0.2,0.4-0.3,0.6c-0.3,0.2-0.6,0-0.9-0.1c-0.3-0.2-0.2-0.6-0.1-0.8      C96.7,50,97.5,50.5,97.6,51L97.6,51z"></path>
				<path class="st4" d="M205,51.9c0.2,0,0.1,0.3,0,0.4c-1,0.5-2.6,0.7-3.5-0.2c-0.5-0.4-1.2-0.6-1.7-1c0.2-0.6,1-0.5,1.5-0.6      C202.6,50.7,203.6,51.8,205,51.9L205,51.9z"></path>
				<path class="st4" d="M99.7,51.5c0.1,0.3-0.2,0.5-0.3,0.7c-0.2,0.3-0.5,0.2-0.7,0.1c-0.4-0.3-0.6-0.7-0.3-1.1      C98.9,50.7,99.5,51,99.7,51.5L99.7,51.5z"></path>
				<path class="st4" d="M103.5,51.7c0.2,0.4-0.1,0.7-0.4,1c-0.3,0.2-0.6-0.1-0.8-0.1c-0.2-0.3-0.6-0.7-0.2-1      C102.4,50.9,103.2,51.3,103.5,51.7L103.5,51.7z"></path>
				<path class="st4" d="M153.2,53.6c-0.1,0.9-1.5-0.1-1.3,1c0.2,0.8,0.4,1.8,0.9,2.4c0.4,0.6,0.2,1.5,0.2,2.2      c-0.4,0.6-1,1.1-1.6,1.4c-1.2-0.1-3,0.6-3.6-0.9c-0.2-0.7-0.7-1.3-0.7-2.1c0.1-0.1,0.3-0.1,0.4-0.2c0-0.3-0.3-0.5-0.3-0.7      c1.4-0.2-0.6-1.5,0.6-1.6c1,1,2.6,0.7,3.4,1.8c0.2,0.2,0.4,0.4,0.6,0.5c-0.2-1-0.7-2.1-0.8-3.2c-0.1-0.6,0.1-1.1,0.5-1.4      C152.2,52.3,152.8,53.1,153.2,53.6L153.2,53.6z"></path>
				<path class="st4" d="M107.3,53.3c0.1,0.4-0.2,0.7-0.5,0.9c-0.4,0.2-0.6-0.3-0.8-0.5c-0.1-0.4,0.2-0.7,0.4-0.9      C106.8,52.9,107.1,53,107.3,53.3L107.3,53.3z"></path>
				<path class="st4" d="M133.8,53.7c0.5,1.7,0.3,3.4-0.5,4.9c0,0.3,0.1,0.9-0.4,0.9c-1.2-1.6-0.3-3.9,0.2-5.5      C133.2,53.5,133.7,53.3,133.8,53.7L133.8,53.7z"></path>
				<path class="st4" d="M170.6,54.5c0.6,1.2,0.6,2.8,0.1,4l-0.3,0.3c-0.5-1-0.9-2-1-3.1c0.2-0.8,0.5-1.5,0.5-2.3      C170.5,53.4,170.5,54.2,170.6,54.5L170.6,54.5z"></path>
				<path class="st4" d="M110.6,55c-0.3,0.5-1,0.6-1.5,1c-1,0.8-2.5,1-3.8,0.7c1.1-1.6,2.8-2.5,4.9-2C110.3,54.9,110.6,54.8,110.6,55      L110.6,55z"></path>
				<path class="st4" d="M93,56.6c1.6,1.1,2,2.7,3,4.2c0.1,0.2,0.6,0.2,0.4,0.6c-0.3,0.3-0.7-0.3-1.2-0.2c-1.6-0.7-2.7-2.6-2.6-4.5      C92.5,56.6,92.8,56.6,93,56.6L93,56.6z"></path>
				<path class="st4" d="M169,57.9c0,0.4,0,0.9-0.4,1c-0.5,0.1-0.9-0.1-1-0.5c-0.1-0.3,0.1-0.5,0.2-0.7      C168.1,57.4,168.7,57.5,169,57.9L169,57.9z"></path>
				<path class="st4" d="M187.1,60.2c0-0.8,0.2-1.6,0.3-2.4c0.1-0.3,0.2-0.6,0.2-0.9c1-1.4,3.1-1,4.8-0.8c0.6,0.3,1.5,0.3,2.2,0.5      c0.3-0.2,0.7-0.3,1.1-0.2c1.4-0.7,0.5-2.3,0.6-3.6l-0.5-1.3c-0.1-0.3-0.3-0.6-0.3-0.9c-0.3-0.3-0.4-0.9-0.7-1.2      c-0.7-1.9-2.2-3-3.4-4.5c-2.2-2.9-5.6-4.5-9.1-5.6c-3.4-1.2-6.8,0.3-9.9,1.4c-0.9-0.3-1.4-1-1.7-1.8c-0.2-1.6,0.2-3.2,0.8-4.6      c0.1-1.1,0.9-1.9,1.2-2.9c0.8-2.4,1.6-4.8,1.8-7.5c0.1-1.6-1.1-2.7-2.3-3.4c-0.8-0.2-1.8-0.2-2.4,0.5c-0.6,1.2-1.8,2-2.8,2.5      c-0.1,0.7,0.8,0.3,1.1,0.5c0.9,0.2,2-0.1,2.8,0.5c0.1,1.7-0.9,3.2-1.8,4.5c-1.5,2.2-3,4.4-3.9,6.8l-0.2-0.2l0.2,10.6      c1.4,2.3,3.1,4.9,5.6,5.7c1.4,1.1,3.1,2.5,4.9,1.5c1-0.3,1.1,1.1,1.5,1.6c0.5,1.6-0.6,2.7-0.7,4.2l-1.1,2.4      c-1.3,2.5-2.5,5.2-4.4,7.3c-0.6,0-1,0.7-1.7,0.7c-0.3,0.5-1,0.1-1.5,0.3c-1.3,0.6-3.2,0.2-4.1,1.5c0.1,0.1,0.2,0.2,0.3,0.2      c2.6,0,5.5,0.2,8.3,0.1c0.3-0.1,0.6-0.4,0.7-0.8c-0.4-0.7,0.1-1.4,0.5-1.9c0.2-1,0.9-1.7,1.2-2.7c0.9-1.8,1.9-3.5,2.9-5.3      l1.3-2.2c0.3-0.7,0.8-1.6,1.3-2.4c0.3-0.3,0.5-0.7,0.8-1.2c0-0.4-0.2-0.6-0.4-0.9c0.3-0.3,0.8-0.2,1.2-0.3      c1.1,0.6,2.2,1.7,2.4,2.9l0.4,1.1l0.2,0.5l-0.1,1.4l0.2,1.3c0.2,2.1-0.2,4.2-0.4,6.3c-0.7,2.5-3.6,2.3-5.7,2.8      c-0.5,0.3-1.5,0.2-1.5,1c2.5,0.5,5.4,0.2,8.1,0.2c0.4-0.2,0.5-0.6,0.7-1c0.1-0.6,0.6-1,0.5-1.6c-0.5-0.6,0-1.6-0.2-2.4      c0.1-0.2,0.1-0.5,0-0.8c0.3-1.3,0.3-2.8,0.5-4L187.1,60.2L187.1,60.2z"></path>
				<path class="st4" d="M208.3,58.5c-1.4,1.9-2.8,4.2-5.2,4.9c-0.2,0-0.3,0.1-0.4-0.1c1.5-1.6,2.2-4,4.5-4.5      C207.5,58.5,207.9,58.4,208.3,58.5L208.3,58.5z"></path>
				<path class="st4" d="M90.8,60.7c-0.2,0.2,0,0.6-0.4,0.6c-0.3,0.2-0.7,0-0.9-0.4c-0.2-0.4,0.2-0.9,0.6-1      C90.4,60.1,90.8,60.2,90.8,60.7L90.8,60.7z"></path>
				<path class="st4" d="M103.2,61.3c0.1,0.4-0.3,0.4-0.5,0.5c-1.8,0.6-3.7,0-4.9-1.3c0-0.2,0-0.3,0.2-0.4      C99.7,60.5,101.8,60.2,103.2,61.3L103.2,61.3z"></path>
				<path class="st4" d="M93.2,60.7c0.1,0.2,0.1,0.5,0.1,0.7c-0.3,0.4-0.6,0.5-1.1,0.4c-0.3-0.1-0.4-0.3-0.6-0.6      c0-0.4,0.4-0.7,0.7-0.8C92.7,60.4,93,60.5,93.2,60.7L93.2,60.7z"></path>
				<path class="st4" d="M133.5,60.9c0.1,0.4-0.3,0.6-0.5,0.8c-0.4,0.1-0.7-0.1-0.9-0.3c-0.1-0.3,0-0.7,0.3-0.8      C132.8,60.5,133.4,60.5,133.5,60.9L133.5,60.9z"></path>
				<path class="st4" d="M209.9,61.1c0.1,0.4-0.3,0.6-0.6,0.9c-0.3,0.1-0.6,0-0.8-0.1c0-0.2-0.3-0.4-0.2-0.7c0.2-0.4,0.6-0.6,1-0.5      C209.5,60.8,209.7,60.9,209.9,61.1L209.9,61.1z"></path>
				<path class="st4" d="M212.7,60.9c0.3,0.4,0,0.7-0.2,1s-0.5,0.4-0.8,0.3c-0.3-0.3-0.6-0.4-0.6-0.8c0-0.3,0.4-0.6,0.6-0.7      C212.2,60.5,212.4,60.9,212.7,60.9L212.7,60.9z"></path>
				<path class="st4" d="M89,62.2c0,0.3-0.2,0.5-0.3,0.7c-0.2,0.1-0.4,0.3-0.7,0.2c-0.3-0.1-0.5-0.4-0.6-0.7c0.1-0.4,0.3-0.7,0.8-0.9      C88.5,61.6,88.9,61.8,89,62.2L89,62.2z"></path>
				<path class="st4" d="M179.6,62.2c0.1,0.2,0,0.4,0,0.6c-0.3,0.3-0.6,0.7-1,0.4c-0.3-0.3-0.6-0.5-0.4-0.9      C178.6,61.8,179.3,61.6,179.6,62.2L179.6,62.2z"></path>
				<path class="st4" d="M96,62.8c-0.1,0.3-0.2,0.6-0.6,0.6s-0.5-0.3-0.7-0.5c0-0.4,0-0.8,0.3-1C95.5,61.8,96,62.3,96,62.8L96,62.8z"></path>
				<path class="st4" d="M91.8,62.9c0.1,0.4-0.2,0.7-0.4,1c-0.5,0.2-0.9-0.2-1.2-0.6c0-0.4,0.3-0.9,0.8-1      C91.4,62.3,91.6,62.7,91.8,62.9L91.8,62.9z"></path>
				<path class="st4" d="M182.5,62.8c0.1,0.4,0,0.9-0.5,1c-0.5,0.2-0.9-0.3-1.2-0.6c0.2-0.3,0.3-0.8,0.8-0.9      C182,62.3,182.3,62.5,182.5,62.8L182.5,62.8z"></path>
				<path class="st4" d="M93.9,63c0.1,0.3-0.1,0.4-0.2,0.6c-0.2,0-0.3,0.3-0.6,0.2c-0.2-0.2-0.5-0.3-0.6-0.6c0-0.4,0.3-0.6,0.6-0.8      C93.5,62.3,93.7,62.7,93.9,63L93.9,63z"></path>
				<path class="st4" d="M207.5,63.3c-0.1,0.3-0.4,0.5-0.7,0.7c-0.3,0.1-0.6-0.2-0.8-0.3c-0.2-0.2-0.1-0.6,0-0.8      C206.4,62.2,207.5,62.5,207.5,63.3L207.5,63.3z"></path>
				<path class="st4" d="M210.8,63.5c-0.1,0.5-0.6,0.7-1,0.7c-0.4-0.2-0.8-0.5-0.5-1c0.2-0.2,0.3-0.3,0.5-0.4      C210.3,62.7,210.7,63.1,210.8,63.5L210.8,63.5z"></path>
				<path class="st4" d="M190.4,63.8c0.2,0.6-0.3,0.7-0.6,1c-0.3,0-0.6-0.2-0.8-0.3c-0.1-0.5,0.1-0.9,0.6-1.1      C189.9,63.3,190.1,63.5,190.4,63.8L190.4,63.8z"></path>
				<path class="st4" d="M178.6,64.3c0.2,0.1,0.1,0.4,0.1,0.5c-0.3,0.2-0.6,0.6-1,0.3c-0.3-0.2-0.5-0.4-0.4-0.8      C177.4,63.9,178.3,63.9,178.6,64.3L178.6,64.3z"></path>
				<path class="st4" d="M181,64.6c0,0.3,0,0.5-0.3,0.7c-0.3,0.3-0.6,0-0.9-0.1c-0.1-0.2-0.2-0.4,0-0.6c0.1-0.2,0.3-0.3,0.6-0.3      C180.5,64.3,180.8,64.3,181,64.6L181,64.6z"></path>
				<path class="st4" d="M108,64.7c0.3,0.3,0,0.6-0.1,0.8c-0.2,0.3-0.7,0.5-1.1,0.2c-0.4-0.2-0.4-0.7-0.3-1.1      c0.3-0.1,0.3-0.4,0.6-0.4C107.5,64.3,107.7,64.5,108,64.7L108,64.7z"></path>
				<path class="st4" d="M195,64.9c0.1,0.4-0.3,0.6-0.6,0.7c-0.5,0.2-0.8-0.2-1-0.6c0-0.3,0.3-0.4,0.3-0.6      C194.3,64.1,194.7,64.5,195,64.9L195,64.9z"></path>
				<path class="st4" d="M192.7,64.9c0.2,0.4-0.3,0.7-0.5,0.9c-0.3,0.1-0.7,0.1-0.9-0.2c-0.2-0.1-0.2-0.4-0.2-0.7      c0.3-0.2,0.4-0.5,0.7-0.6C192.1,64.3,192.5,64.6,192.7,64.9L192.7,64.9z"></path>
				<path class="st4" d="M212.1,65.4c0.1,0.6-0.7,0.3-1,0.5c-1.8,1.1-4.1,0.3-5.8-0.4c0.1-0.6,0.8-0.3,1.1-0.6      c1.9-1.2,3.7,0.3,5.6,0.3L212.1,65.4L212.1,65.4z"></path>
				<path class="st4" d="M94.3,64.9l-0.2,0.3c-1.6,1-3.7,1.6-5.5,1l-0.2-0.3c1.6-1.2,3.7-1.5,5.8-1.2L94.3,64.9L94.3,64.9z"></path>
				<path class="st4" d="M199.4,65.2c0,0.3-0.2,0.6-0.4,0.8c-0.4,0.1-1,0-1.1-0.5c-0.1-0.3,0.2-0.7,0.6-0.8      C198.7,64.7,199.2,64.7,199.4,65.2L199.4,65.2z"></path>
				<path class="st4" d="M102,65.3c-0.2,0.3-0.1,0.7-0.5,0.9c-0.4,0.2-0.9-0.2-1.1-0.6c-0.1-0.5,0.2-0.6,0.4-0.8      C101.4,64.6,101.8,64.9,102,65.3L102,65.3z"></path>
				<path class="st4" d="M99,65.6c0.1,0.3-0.1,0.5-0.2,0.7c-0.2,0.3-0.6,0.2-0.9,0.1c-0.3-0.3-0.6-0.6-0.5-1c0.3-0.2,0.4-0.3,0.7-0.5      C98.5,64.9,98.9,65.1,99,65.6L99,65.6z"></path>
				<path class="st4" d="M202.4,66.5c0,0.4-0.3,0.7-0.7,0.8c-0.3,0-0.6-0.2-0.8-0.4c-0.1-0.3-0.1-0.6,0.2-0.8      c0.1-0.1,0.4-0.1,0.6-0.2C202,65.9,202.3,66.2,202.4,66.5L202.4,66.5z"></path>
				<path class="st4" d="M95.8,66.1c0.1,0.3-0.2,0.5-0.2,0.7c-0.1,0.7-0.6,1.2-0.9,1.9c-0.8,1-2,1-3.1,1.3l-0.2-0.3      C92.6,68.1,94,66.8,95.8,66.1L95.8,66.1L95.8,66.1z"></path>
				<path class="st4" d="M200.2,67c0.1,0.5-0.3,0.6-0.6,0.8c-0.4,0-0.7-0.2-0.9-0.5c-0.1-0.5,0.3-0.6,0.6-0.9      C199.7,66.4,200.1,66.7,200.2,67L200.2,67z"></path>
				<path class="st4" d="M100.7,67c0,0.1,0,0.2,0.1,0.2c0,0.5-0.4,0.6-0.6,0.8c-0.4,0-0.7-0.1-0.9-0.4c-0.2-0.4,0-0.9,0.4-1      C100.1,66.6,100.6,66.6,100.7,67L100.7,67z"></path>
				<path class="st4" d="M208.1,68.3c0.4,0,0.5-0.6,1-0.7c0.4-0.1,0.8,0.2,1,0.5c0.2,0.5-0.2,0.8-0.6,1c-0.3,0.2-0.9-0.3-0.9,0.3      c0.3,0.2,0.6,0.5,0.6,0.9c-0.1,0.2-0.4,0.1-0.5,0c-1.2-0.5-2.6-1.4-3.1-2.7c-0.2-0.4-1-0.7-0.5-1      C206.4,66.5,207.5,67.5,208.1,68.3L208.1,68.3z"></path>
				<path class="st4" d="M212.3,67c0.2,0.2,0.1,0.6,0,0.8c-0.2,0.4-0.9,0.3-1.2,0.2c-0.2-0.2-0.4-0.4-0.3-0.8      c0.2-0.3,0.3-0.4,0.6-0.6C211.7,66.6,212,66.8,212.3,67L212.3,67z"></path>
				<path class="st4" d="M196.7,69.3c0.4,0.5,0.8,1.2,0.9,1.7c-0.1,0.1-0.3,0.1-0.4,0.1c-1.5-0.8-3.4-1.7-3.9-3.5      c-0.1-0.2-0.5-0.4-0.4-0.7c1.1-0.2,2.2,0.6,3,1.2C196.1,68.6,196.5,68.8,196.7,69.3L196.7,69.3z"></path>
				<path class="st4" d="M98.3,67.7c0.2,0.4-0.2,0.7-0.4,0.9c-0.5,0.1-0.7-0.1-1-0.3c-0.3-0.5,0.3-0.9,0.6-1      C97.9,67.1,98.1,67.5,98.3,67.7L98.3,67.7z"></path>
				<path class="st4" d="M202,68.7c0,0.3-0.3,0.4-0.4,0.6c-0.3,0-0.7,0.2-1-0.1c-0.1-0.2-0.3-0.6,0-0.8C201,67.8,201.7,68.2,202,68.7      L202,68.7z"></path>
				<path class="st4" d="M212.7,69.3c0.1,0.5-0.3,0.9-0.6,1.1c-0.4,0.1-0.8-0.2-1-0.4c-0.2-0.3,0-0.5,0-0.8c0.3-0.3,0.7-0.5,1.1-0.3      C212.4,69,212.6,69.1,212.7,69.3L212.7,69.3z"></path>
				<path class="st4" d="M183,75.3c0,0.5-0.9,0.4-1.3,0.8c-1.3,0.7-2.9,0.7-4.5,0.6v-0.3C178.7,75.1,180.9,74.7,183,75.3L183,75.3z"></path>
				<path class="st4" d="M120.2,77.1c0,0.4-0.3,0.6-0.6,0.7c-0.3,0-0.6-0.2-0.7-0.4c-0.2-0.5,0.3-0.7,0.6-1      C119.8,76.5,120.1,76.8,120.2,77.1L120.2,77.1z"></path>
				<path class="st4" d="M182.3,77.6c-0.1,0.4-0.2,0.8-0.6,1c-0.4,0.1-0.6-0.1-0.9-0.3c-0.2-0.2-0.1-0.5-0.1-0.7      C180.8,76.8,182,76.8,182.3,77.6L182.3,77.6z"></path>
				<path class="st4" d="M190.8,77.8c-1.1,0.7-2.3,1.5-3.7,1.5h-2.3l-0.2-0.2c1.4-1.7,4-1.7,6.2-1.6V77.8L190.8,77.8z"></path>
				<path class="st4" d="M108.4,78.8c0,0.4-0.2,0.7-0.6,0.8c-0.4,0.1-0.7-0.1-0.9-0.4c-0.2-0.4,0-0.8,0.3-1      C107.8,77.9,108.3,78.5,108.4,78.8L108.4,78.8z"></path>
				<path class="st4" d="M110.6,79.2c0.1,0.2-0.1,0.3-0.2,0.6c-0.3,0.1-0.6,0.2-0.8,0c-0.3-0.2-0.4-0.5-0.3-0.7      c0.1-0.3,0.4-0.2,0.5-0.4C110.2,78.8,110.5,78.9,110.6,79.2L110.6,79.2z"></path>
				<path class="st4" d="M94.1,83.6c-0.4,0.5-1.1-0.1-1.6-0.4c-1.5-0.9-1.5-2.6-3-3.6c0.2-0.5,0.6,0,0.9,0c0.3,0.2,0.6,0.3,0.9,0.5      C92.8,80.9,93.1,82.3,94.1,83.6L94.1,83.6z"></path>
				<path class="st4" d="M219.5,66.8c-0.7-1.3-1.8-1.8-3.2-1.8c-1.1,0.1-1.9,0.8-2.4,1.8c-0.3,1,0.1,1.8,0.8,2.4      c0.3,0.1,0.7,0.1,0.9-0.2c0.2-0.6-0.4-0.6-0.5-1c-0.2-0.6,0-1.1,0.5-1.5c0.4-0.4,1.2-0.2,1.7-0.2c0.5,0.3,1,0.7,1.3,1.3      c0.3,0.7,0.3,1.6,0,2.3c-0.5,1.1-1.5,1.9-2.7,2.2c-3.6,0.5-42.8,0.3-42.8,0.3c-4.6,0.4-9.8-0.9-13.8,1.6      c-1.8,0.9-2.7,2.9-3.2,4.6c-1.2,1-2.4,2.3-3.4,3.4l-0.1-0.1c0.2-1,0.7-1.9,0.9-3c0.6-0.9,0.6-2,1.1-3c1.6-2.6,3.2-5.3,5.7-7.2      c1.1-1.4,3-1.2,4.6-1.2c1.8,0.8,3.8,1.1,6,0.9c0.1-0.1,0.1-0.2,0.1-0.3c-0.6-0.6-1.6-0.8-2.3-1.3c-1.7-0.8-3.4,0.3-5.2,0.1      c-0.1-0.1-0.2-0.1-0.1-0.3c1.6-1.2,3.5-2.1,5.3-2.9c1.5-0.8,3.1-1.3,4.7-1.9c0.6,0,1.2-0.6,1.8-0.2l2.3-0.6      c0.1,0,0.2,0.2,0.3,0.1c1.9-0.7,4.4,0,6.6-0.1l0.3,0.3l2.1,0.5c0.8,0.1,1.1,1,1.9,1c0.4-0.6-0.5-0.9-0.7-1.3c0.9-0.2,2,0,2.9,0.4      l-0.4,0.5c-0.3,0.5,0.1,0.8,0.5,1c0.3,0.1,0.5-0.1,0.7-0.2c0.6-0.4,0-0.8,0.1-1.1c3.2,0.6,6.2,1.3,9.2,2.6      c0.8,0.3,1.6,0.9,2.5,0.8c-0.9-0.8-2.2-1.3-3.3-1.7c-0.7-0.4-1.8-0.5-2.3-1.1c0.1-0.2,0.4-0.1,0.6-0.3c1.5-0.2,2.7-1.3,3.7-2.4      c0.1-0.3,0.6-0.2,0.5-0.5c-0.4-0.4-1,0.1-1.6,0.1c-1.8,0.3-2.6,2.5-4.4,2.9c-2.2-0.5-4.4-1-6.6-1.6c-1.1-0.2-2.2-0.3-3.2-0.7      l-2.4-0.2h-4.4c0-0.1-0.2-0.1-0.1-0.3c1.5-0.4,2.9-1.3,4.4-1.7l11.5-5.3c1.2-1.1,2.3-2.3,3.3-3.6c0-0.3-0.2-0.7-0.5-0.8      s-0.6-0.1-0.9,0.2c-0.5,0.4,0,0.9,0,1.3c-0.5,0.7-1.3,1.3-2,1.7c-0.2,0-11.9,5.3-11.9,5.3c-1.7,0.7-3.4,1.6-5.2,1.9l-2.5,0.4      c-0.2,0.5-0.6,0.8-1.1,1c-0.7,0.1-1.2,0.6-2,0.6c-5.6,2.2-11.4,4.5-15.8,8.9c0.3-0.5,0.4-1.2,0.4-1.8c-0.1-0.6,0-1.4-0.5-1.9      c-0.1-0.2-0.4-0.9-0.3-1.2l-0.6,0.4c-0.4,1-0.7,2.7-0.3,3.7c0.1,0.8,0.8,1.7,0.2,2.4c-2.1,2.5-3.2,5.5-4.6,8.4      c-0.5-0.1-0.8-0.6-1-1c1.5-1.9,2.6-3.9,3.1-6.3c0.3-0.2,0.1-0.8,0.4-1c-0.1-0.7,0.4-1.4,0-1.9c0.3-0.9-1.3-1.8-0.3-2.4l-0.8,0.4      c-1.8,2.4,1,6.1-1.1,8.4V76c-0.6,0.8-0.9,1.6-1.7,2.1c-1-0.4-1.4-1.6-2-2.5c-0.9-0.9-0.9-2.8-0.4-4c0.4-1.3-0.3-2.3-0.4-3.5      l-0.4-0.3c-1,1.3-1.4,3.5-0.6,5.1c0.4,0.8,0.5,1.9,1.1,2.5c0.4,1.3,1.2,2.1,1.8,3.2c0.2,0.4-0.3,0.5-0.5,0.7      c-0.5-0.3-0.4-1-0.8-1.3c-1.4-3-3.3-5.5-5.5-7.9c-0.1-0.4-0.5-0.7-0.3-1.2c0.8-0.8,1-2.3,0.6-3.3c-0.1-0.2-0.3-0.5-0.3-0.7      l-0.6-0.5c0.1,1.5-0.9,2.9-0.5,4.5V69c-4.4-3.3-9.3-6.3-14.3-8.7l-0.4,1.1c1.3,0.3,4.6,2.4,4.6,2.4c1.5,0.6,2.9,1.5,4.3,2.3      c5.8,3.3,9.7,8.6,12.3,14.6c0,0.5,0.5,1,0.2,1.5c-0.9-1.4-2.2-2.2-3.3-3.3c-0.3-2-1.5-4-3.3-4.8c-0.6-1-2-1-3.1-1.3L123,72.5      c-12.7-0.2-24.3,0.4-37,0.2c-1.8-0.2-3.9-0.8-4.4-2.6c-0.3-0.6-0.3-1.8,0-2.4c0.5-0.8,1.3-1.1,2.2-1.2c0.7,0.1,1.2,0.7,1.5,1.2      c0,0.6-0.5,1.1-0.7,1.6c0,0.2,0.2,0.5,0.5,0.4c0.6-0.2,1-0.8,1.1-1.4c0-0.3,0.2-0.7-0.1-1c-0.3-0.9-1.2-1.6-2-1.8      c-1.1-0.1-2.2,0.2-2.9,1c-1,0.9-1,2.4-0.7,3.6c0.7,1.9,2.7,3.2,4.6,3.5l41.9,0.2c4.1,0.2,8.7-0.5,12.8,0.3      c1.5,0.5,3.1,1.6,3.5,3.3c0,0.1-0.2,0-0.3,0c-3.4-2.2-7.9-3-12.2-2.5c-1.7-0.1-3.3,0.6-4.8,1c-0.8,0.2-1.6-0.2-2.1-0.7      c-1.5-1.4-4.3-1.3-6.2-0.8c0,0.1,0,0.3,0,0.3c2.1-0.2,3.4,1.6,5.2,1.9c0.4,0.1,0.8-0.4,1.2,0c-2,1-3.9,2.1-6,2.7      c-0.6-0.1-1-0.7-1.5-1.1c-0.8-0.9-2.3-0.5-3.4-0.6c-0.4,0.1-0.7-0.2-1,0c0.3,0.7,1.1,1.1,1.9,1.4c1.1,0.5,2.3,0,3.3,0.6      c-0.3,0.3-0.6,0.4-0.9,0.6c-2,0.8-3.7,2.6-5.9,2.5c-2.4,0.3-4.8-0.4-6.4-2.1c-0.7-1.7-2.5-2.6-4.3-2.5c-0.1,0.1-0.3,0.1-0.3,0.3      c0.9,0.6,1.7,1.7,2.6,2.3c0.6,0.7,1.8,0,2.3,0.8c0.8,0.6,1.9,1,2.8,1.2c0.7,0.3,1.5,0.4,2.2,0.6l-0.3,0.2      c-3.9,1.3-8.4,1.4-12.8,1.3c-1.3,0-2.5-0.4-3.8-0.4c0.2,0.3,0.6,0.5,1,0.6c-0.3,0.2-0.7,0.3-1.2,0.3c-0.5,0.1-1.1,0.2-1.6,0.4      c-0.7,0-1.3,0.2-1.8,0.4c-0.7,0.8-1.6,1.6-2.5,2c0,0.2,0,0.4,0.2,0.4c0.8-0.3,1.8-0.1,2.7-0.4c1.4-0.1,2.2-1.7,3.4-2.3      c1.2-1,2.9-0.7,4.4-0.5c0.9,0.2-0.1,0.6,0.2,1.1c0.3,0.3,0.6,0.6,1.1,0.5c0.1-0.1,0.2-0.2,0.3-0.2c0.3-0.3,0.2-0.7,0-1.1      c0.6-0.4,1.4,0,2.1-0.2c1.6,0,3.3-0.4,4.9-0.4c0.3,0,0.6-0.3,0.8,0c-0.1,0.3-0.6,0.4-0.4,0.9c0.1,0.4,0.5,0.6,0.9,0.7      c0.4-0.2,0.8-0.5,0.6-1c-0.1-0.3-0.4-0.3-0.6-0.5c0.9-0.4,1.9-0.6,2.8-1c0.6-0.1,1.2-0.3,1.8-0.6c0.6,0,1-0.6,1.5-0.3      c-0.2,0.7-0.5,1.4-0.9,2.1c-0.7,2.3-1.2,5.3,0,7.5c0.1,0,0.2,0,0.3-0.1c-0.9-2.3-0.4-4.9,0.4-7.1c0.6-3.7,4.4-4.8,7.1-6.2      l0.1,0.2c-0.7,1.9-1.8,3.7-1.6,6c0.1,0.4-0.2,0.8,0,1c0.7-0.4,1.2-1.3,1.6-2c0.3-1.9-0.8-4.4,1.2-5.8c3.5-1.4,6.8-3.2,10.9-3.2      c0.1,0.1,0.4-0.1,0.5,0.2c-0.9,1-2.1,1.9-2.5,3c-1.4,1.9-1.3,5.2-0.7,7.5c0.4,1.3-0.8,2.1-1.3,3.1c-0.3,0.4-0.3,1-0.6,1.4      l0.8,0.1c0.7-0.8,1.4-1.7,1.5-2.9c0.1,0.4,0.5,0.8,0.8,0.9c0.3-0.5-0.3-0.8-0.3-1.3c0.7-0.4,1,0.5,1.5,0.7      c0.9,0.2,1.7,0.6,2.6,0.6l0.3-0.3c-0.9-1.5-2.8-1.7-4.5-1.8c-0.9-1.4-0.9-3.2-0.8-4.9c0.2-0.9,0.3-1.9,0.9-2.7      c0.2-0.6,0.8-1.2,1.2-1.6c0.8-0.7,1.8-1.3,2.7-1.5h0.1c0,0.1,0,0.1,0,0.1c-1.2,0.9-1.3,2.2-2,3.3c-0.7,1.1-1.1,2.6-0.4,3.8      c0.3,0.6,0.1,1.4,0.7,1.8c0.6-0.8,0.6-1.8,0.9-2.6c-0.1-1.4-1-2.8-0.2-4.2c0.4-1.1,1.3-1.5,2.3-1.9c2.4-0.2,4.4,1,6.5,1.9      c0.4,0.3,1.2,0.6,1.2,1.2c0,1.2-0.7,2.3-1.6,2.9c-1.2,0.7-2.8,0.8-3.9,0c-0.6-0.6-0.9-1.8-0.7-2.6c0.5-0.5,1.1-1,1.9-0.7      c0.4,0.2,0.8,0.7,1.4,0.4c0.2-0.1,0.3-0.5,0.2-0.7c-0.5-0.3-0.6-0.9-1.3-1c-0.8-0.1-1.8-0.1-2.4,0.5c-0.9,0.8-1.2,1.9-1,3      c0.3,1.4,1.3,2.4,2.7,2.8c2,0.5,4-0.1,5.3-1.8c0.5-0.6,0.6-1.2,0.9-1.9c2.1,1.3,3.6,3.5,4.4,5.7c0,0.7,0.2,1.5,0,2.2l1.5,0.1      c-0.1-0.3,0-0.7,0.1-1c0.6-2.9,2.3-5.2,4.4-7.1c0.7-0.4,0.6,0.6,0.7,0.9c0.6,1.6,2.2,2.8,3.7,3.3c1.8,0.3,3.5-0.1,4.6-1.5      c0.6-1,1.2-2.6,0.3-3.6c-0.6-0.7-1.4-1.1-2.4-1.1c-1.1,0-1.8,0.8-2.4,1.6c0,0.3,0,0.7,0.3,0.9c0.2,0,0.5,0,0.6-0.2      c0.1-0.6,0.6-1,1.2-1.3c0.5-0.3,1,0,1.4,0.3c0.5,0.4,0.6,1,0.6,1.7c-0.1,0.8-0.6,1.7-1.4,2c-1.2,0.6-3.1,0.3-4.1-0.4      c-0.5-0.6-0.8-1.2-1.2-1.9c-0.1-0.7-0.3-1.3,0-2c1.9-1.1,3.9-1.9,6.2-2.2c0.9,0.2,1.7,0.8,2.3,1.4c2,2-0.4,4.9,0.9,7.2      c0.5-0.1,0.5-0.8,0.7-1.2c0.6-1.6-0.2-3.2-0.6-4.8c-0.5-1-0.8-1.8-1.6-2.6c0.2-0.1,0.3-0.1,0.5-0.1c0.9,0.6,1.9,1.3,2.6,2.3      c1.2,2,1.9,4.5,1.7,7.1c-0.3,1.3-1.7,1.9-2.8,2.4c-0.4,0.3-0.9,0.9-1.2,1.4c0.5,0.3,1.2,0,1.8-0.2c0.8-0.3,1.3-1.3,1.9-1.8      c0.1,0,0,0.2,0.1,0.3c0,0.5-0.2,1.1,0.2,1.3c0.2-0.6,0.3-1.5,0.4-2.2c0.6,0.6,0.6,1.4,0.8,2.2c0.4,0.8,1,1.8,2.1,1.9      c0.3-0.4,0-0.8-0.1-1.1c-0.1-1.1-1-1.6-1.6-2.4c-1.5-2.1-0.8-5.3-2-7.7c-0.4-1.3-1.3-2.2-2.3-3.2l0.2-0.2c2.1,0,3.9,0.6,5.8,1      c2.4,1.2,5.8,0.9,6.9,4c0.5,1.7,1.2,3.3,2.5,4.7l0.1-0.1c0.3-0.4,0.3-1.2,0-1.6c-0.3-2.2-2.1-2.7-3.1-4.5l0.1-0.2      c1,0.3,2.1,0.6,3.1,1c3.4,1,5.8,4.3,6.3,7.8c0,2.8-0.5,5.1-1.6,7.4c-0.1,0.3-0.7,0.7-0.3,1c0.5-0.3,0.6-0.9,0.8-1.3      c1.4-2.4,2.1-5.7,1.4-8.7c0-0.6-0.7-1-0.4-1.6c0.2,0.3,0.5,0.3,0.7,0.4c0.3-0.2,0.6-0.2,0.8-0.5c0-0.3,0.2-0.6,0-0.8      c-0.3-0.4-0.8-0.4-1.2-0.3c-0.2,0.3-0.5,0.6-0.5,1c-0.4-0.7-0.9-1.7-1.5-2.3l0.1-0.1c1.9,0.6,3.7,1.6,5.7,2.1      c0.4,0.3,0.9,0.5,1.5,0.5c1.7,0.6,3.5,0.9,5.3,1.3c1.3-0.1,2.4,0.5,3.7,0.2v-0.1l0,0c-0.5-0.6-1.5,0-2.1-0.5      c-3-0.3-5.8-1.1-8.5-2.1c0-0.1,0.2-0.1,0.3-0.1c0.4-0.2,0.7-0.6,0.7-1.1c-0.2-0.3-0.6-0.5-1-0.5c-0.3,0.1-0.6,0.4-0.6,0.7      c0,0.3,0.3,0.7,0.6,0.8c-0.1,0.1-0.3,0-0.4,0c-1.3-0.6-2.6-1.2-3.9-1.8c-0.5-0.1-0.9-0.5-1.3-0.6c-1-0.5-2-1-3-1.3      c-2.8-1.4-5.8-2.2-8.7-3.2c-0.6-0.2-1.2-0.3-1.8-0.5c-1.1-0.3-2.1-0.6-3.2-0.9c-3.7-0.9-8.6-1-11.7,1c-0.5-0.2-0.8,0.6-1.1,0.1      c0.9-2.4,3.5-3.2,5.9-3.2c17.3-0.2,33.4-0.3,50.4-0.6c2,0,3.9-0.7,4.9-2.5C219.9,69.8,220.1,68,219.5,66.8L219.5,66.8z       M151.1,82.8c-0.2,0.5-0.5,1-0.5,1.5l-0.2,0.1c0.1-0.7-0.5-1-0.3-1.7c-0.3-0.5-0.3-1.2-0.6-1.7c-0.4-0.7,0.3-1,0.6-1.5      c0.6,0.3,0.8,0.8,1.2,1.3C151.6,81.5,151.1,82.1,151.1,82.8L151.1,82.8z"></path>
				<path class="st4" d="M197.8,80.1c0,0.1,0.3,0.2,0.2,0.4c-1.5,1.3-3.6,1.7-5.8,1.8c-0.2,0-0.3,0.2-0.6,0.1      c-0.1-0.1-0.2-0.2-0.1-0.3C193.1,80.4,195.5,79.5,197.8,80.1L197.8,80.1z"></path>
				<path class="st4" d="M190.9,80.8c0.2,0.6-0.2,1-0.7,1.2c-0.5,0-0.7-0.3-0.9-0.7c-0.1-0.3,0.2-0.5,0.3-0.7      C189.9,80.2,190.7,80.2,190.9,80.8L190.9,80.8z"></path>
				<path class="st4" d="M109.1,80.8c0.1,0.3,0,0.7-0.2,0.9c-0.2,0.2-0.6,0.3-0.8,0.2c-0.3,0-0.5-0.4-0.6-0.6c0-0.4,0.2-0.6,0.6-0.8      C108.4,80.5,108.8,80.5,109.1,80.8L109.1,80.8z"></path>
				<path class="st4" d="M101.4,83.7V84c-1,0.2-2,0-2.8-0.6c-0.6-0.9-1.3-1.7-2.3-2.2c0-0.1-0.3-0.3,0-0.4      C98.5,80.8,99.8,82.5,101.4,83.7L101.4,83.7z"></path>
				<path class="st4" d="M204.3,80.8c-1,1.5-1.8,3.3-3.6,3.9c-0.3,0-0.6,0.4-0.8,0.1c0.7-1.6,2.2-3.4,3.8-4.1      C203.9,80.8,204.1,80.7,204.3,80.8L204.3,80.8z"></path>
				<path class="st4" d="M111.6,81.3c0,0.5-0.3,0.6-0.6,0.8c-0.3,0-0.5-0.2-0.7-0.5c-0.2-0.4,0.2-0.6,0.4-0.8      C111,80.8,111.4,81,111.6,81.3L111.6,81.3z"></path>
				<path class="st4" d="M209.7,81.6c-0.4,0.6-0.2,1.4-0.6,2c-0.9,1-1.6,2.1-3,2.3c-0.2-0.4,0.3-0.9,0.5-1.3c0.6-1.3,1.5-2.8,2.8-3.3      L209.7,81.6L209.7,81.6z"></path>
				<path class="st4" d="M88.1,82c0.1,0.3,0.3,0.6,0,1c-0.3,0.2-0.6,0.3-1,0.2c-0.4-0.2-0.5-0.7-0.3-1C87,81.7,87.8,81.5,88.1,82      L88.1,82z"></path>
				<path class="st4" d="M85.6,82.5c0,0.2,0.2,0.4,0.1,0.6s-0.3,0.5-0.6,0.5c-0.5,0.1-0.8-0.2-1-0.6c0-0.4,0.1-0.7,0.4-0.9      C85,82,85.4,82.2,85.6,82.5L85.6,82.5z"></path>
				<path class="st4" d="M90.7,82.8c0.1,0.3,0.2,1-0.3,1c-0.6,0.3-0.9-0.2-1.3-0.5c0-0.4,0.2-0.7,0.5-0.9      C90,82.4,90.4,82.4,90.7,82.8L90.7,82.8z"></path>
				<path class="st4" d="M97.7,83.3c0,0.3,0,0.7-0.3,0.8c-0.2,0.2-0.6,0.1-0.8,0.1c-0.1-0.3-0.6-0.5-0.3-0.8c0.2-0.2,0.3-0.3,0.6-0.5      C97.2,83.1,97.6,83,97.7,83.3L97.7,83.3z"></path>
				<path class="st4" d="M213.9,83.6c-0.1,0.3-0.3,0.7-0.6,0.7c-0.4,0-0.8-0.1-1-0.5c-0.2-0.5,0.2-0.7,0.6-0.9      C213.2,83,213.8,83.1,213.9,83.6L213.9,83.6z"></path>
				<path class="st4" d="M206,83.8c0,0.3-0.3,0.6-0.5,0.7c-0.6,0.3-1.1-0.2-1.3-0.6c0.1-0.4,0.4-0.6,0.7-0.8      C205.4,83.1,205.7,83.4,206,83.8L206,83.8z"></path>
				<path class="st4" d="M211.3,83.7c0,0.3-0.2,0.6-0.4,0.7c-0.3,0.1-0.8,0.1-1-0.2c-0.4-0.3-0.1-0.7,0.2-0.9      C210.5,83.2,211.2,83.2,211.3,83.7L211.3,83.7z"></path>
				<path class="st4" d="M86.9,84.5c0.1,0.5-0.1,0.9-0.5,1.1c-0.4,0-0.8-0.2-0.9-0.6c0-0.4,0.1-0.8,0.4-0.9      C86.3,83.9,86.7,84.2,86.9,84.5L86.9,84.5z"></path>
				<path class="st4" d="M203.8,85c0.1,0.5-0.1,0.9-0.6,1.1c-0.3,0.1-0.6-0.1-0.8-0.3c-0.2-0.2-0.4-0.7,0-0.9      C202.7,84.2,203.6,84.5,203.8,85L203.8,85z"></path>
				<path class="st4" d="M110.1,85.4c0.2,0.5-0.3,0.6-0.5,0.8c-0.2,0.1-0.5,0.1-0.6,0c-0.2-0.3-0.5-0.5-0.3-0.9      c0.2-0.2,0.3-0.3,0.6-0.4C109.6,84.7,109.8,85.2,110.1,85.4L110.1,85.4z"></path>
				<path class="st4" d="M213.1,85.7c0.1,0.3-0.2,0.4-0.2,0.6c-0.3,0.2-0.7,0.3-1,0.2c-0.4-0.2-0.4-0.6-0.4-1      c0.3-0.2,0.3-0.4,0.6-0.5C212.5,85.1,213,85.3,213.1,85.7L213.1,85.7z"></path>
				<path class="st4" d="M210.4,85.9c0.2,0.5-0.3,0.8-0.6,0.9c-0.2,0-0.4-0.1-0.5,0.2c1.1,0.6,1.8,1.5,2.7,2.3v0.3      c-1.5,0-3.1-0.4-4.3-1.6c-0.3-0.2-0.8-0.2-1.2-0.5c0.6-0.6,1.6-0.3,2.4-0.4c0.6-0.6-0.6-1,0.1-1.6c0.3,0,0.4-0.3,0.8-0.2      C210.1,85.4,210.3,85.6,210.4,85.9L210.4,85.9z"></path>
				<path class="st4" d="M192.8,85.9c0.1,0.2-0.2,0.5-0.2,0.7c-0.3,0.3-0.6,0.3-0.9,0.2c-0.2-0.3-0.6-0.6-0.4-1      C191.6,85.1,192.7,85.3,192.8,85.9L192.8,85.9z"></path>
				<path class="st4" d="M96.7,87.4c-0.1,0.4-0.3,0.6-0.7,0.7c-0.3,0-0.6-0.2-0.8-0.5c0-0.3,0.2-0.5,0.2-0.7      C95.8,86.5,96.7,86.8,96.7,87.4L96.7,87.4z"></path>
				<path class="st4" d="M100.1,86.9c0,0.6-0.6,1-0.9,1.6c-0.6,1.4-1.8,2.7-3.4,2.9c-0.2-0.4,0.6-0.9,0.7-1.3      c0.7-1.5,2.1-2.3,3.3-3.2H100.1L100.1,86.9z"></path>
				<path class="st4" d="M191.8,87.5c0,0.5-0.4,0.8-0.7,1c-0.4,0.1-0.7-0.2-0.9-0.3c-0.3-0.3-0.1-0.7,0-1      C190.7,86.6,191.5,87,191.8,87.5L191.8,87.5z"></path>
				<path class="st4" d="M194.5,87.8c0,0.5-0.3,0.8-0.8,1c-0.1-0.1-0.3,0-0.4-0.1c-0.3-0.2-0.6-0.4-0.6-0.8c0.2-0.2,0.3-0.6,0.6-0.6      C193.7,87.2,194.3,87.3,194.5,87.8L194.5,87.8z"></path>
				<path class="st4" d="M106.8,87.7c0,0.5-0.3,0.7-0.6,0.9c-0.4,0-0.6-0.2-0.8-0.5c-0.1-0.4,0.3-0.6,0.5-0.9      C106.4,87.1,106.5,87.5,106.8,87.7L106.8,87.7z"></path>
				<path class="st4" d="M109.8,87.9c-0.1,0.4-0.4,0.7-0.8,0.7c-0.3-0.1-0.6-0.2-0.8-0.5c0-0.4,0.3-0.6,0.6-0.9      C109.2,87.3,109.7,87.4,109.8,87.9L109.8,87.9z"></path>
				<path class="st4" d="M203.7,90.9c0.2,0.2,0.6,0.4,0.5,0.7c-0.7,0.3-1.2-0.5-1.9-0.6c-1-1-1.8-2.2-2.2-3.5      c0.4-0.4,0.8,0.1,1.2,0.2C202.3,88.6,203.2,89.7,203.7,90.9L203.7,90.9z"></path>
				<path class="st4" d="M205.3,87.9c0.1,0.3,0.1,0.7-0.1,1c-0.3,0.4-0.8,0.3-1.2,0.3c-0.2-0.3-0.6-0.6-0.3-1      c0.1-0.3,0.5-0.4,0.8-0.6C204.8,87.5,205,87.8,205.3,87.9L205.3,87.9z"></path>
				<path class="st4" d="M113.7,89c0,0.3,0.1,0.9-0.3,1.1c-0.4,0.1-0.9,0-1-0.5c-0.2-0.5,0.3-0.6,0.5-0.9      C113.3,88.6,113.5,88.8,113.7,89L113.7,89z"></path>
				<path class="st4" d="M194.3,91.9c0.6,0.9,1,1.9,1.1,3.1c-0.1,0.3,0.2,0.6,0,0.8h-0.2c-1.9-1.4-2.4-3.3-3.1-5.3      c-0.2-0.1-0.2-0.3-0.2-0.4c0.4-0.4,0.7,0.4,1.2,0.5L194.3,91.9L194.3,91.9z"></path>
				<path class="st4" d="M119.3,90.4C119.3,90.4,119.3,90.5,119.3,90.4c-1.7,1.3-4.1,2-6.1,0.9c0-0.1,0-0.3,0.2-0.4      c1.2-0.4,2.5-1,3.8-0.8L119.3,90.4L119.3,90.4z"></path>
				<path class="st4" d="M109.5,90.6c-1.5,0.9-2.8,2.7-4.6,3.1c-0.3,0.1-0.6,0.6-1,0.3c0.8-2.3,3.3-3.6,5.6-3.8V90.6L109.5,90.6z"></path>
				<path class="st4" d="M191.8,92.5c0.1,0.3,0,0.8-0.3,0.9c-0.2,0.2-0.6,0.2-0.8,0c-0.4-0.2-0.4-0.6-0.4-0.9      c0.1-0.3,0.4-0.3,0.6-0.5C191.3,92.2,191.6,92.2,191.8,92.5L191.8,92.5z"></path>
				<path class="st4" d="M188.2,92.8c-0.3,0.6-1,1-1.5,1.1c-1.5,0.5-2.8-0.2-4.1-0.5c0-0.3,0.5-0.2,0.7-0.4c1.4-0.3,2.9-0.6,4.4-0.2      C187.8,92.6,188.1,92.6,188.2,92.8L188.2,92.8z"></path>
				<path class="st4" d="M109.5,94c-0.1,0.2-0.2,0.6-0.5,0.7s-0.6,0-0.9-0.2c-0.1-0.3-0.4-0.5-0.2-0.8c0.1-0.3,0.4-0.4,0.7-0.5      C109.1,93.3,109.4,93.6,109.5,94L109.5,94z"></path>
				<path class="st4" d="M112.1,94.4c-0.1,0.3-0.3,0.6-0.6,0.8c-0.3,0.1-0.6-0.1-0.9-0.3c-0.1-0.3-0.3-0.6-0.1-0.9      c0.1-0.2,0.4-0.3,0.6-0.4C111.5,93.6,111.9,94.1,112.1,94.4L112.1,94.4z"></path>
				<path class="st4" d="M191,94.8c0,0.3-0.1,0.6-0.3,0.8c-0.2,0.3-0.6,0.3-0.9,0.2c-0.3,0-0.4-0.4-0.5-0.6c-0.3-0.3,0.2-0.6,0.3-0.9      C190,94,190.8,94.2,191,94.8L191,94.8z"></path>
				<path class="st4" d="M192.9,94.8c0,0.2,0.2,0.4,0.1,0.6c-0.3,0.2-0.4,0.8-0.9,0.6c-0.3,0.1-0.4-0.3-0.5-0.3      c-0.2-0.4,0-1.1,0.5-1.2C192.4,94.3,192.7,94.6,192.9,94.8L192.9,94.8z"></path>
				<path class="st4" d="M110.5,96c0.1,0.5-0.1,0.9-0.4,1.2c-0.5,0.1-1.1,0.1-1.2-0.5c0-0.4,0-1,0.5-1.3      C109.8,95.4,110.3,95.5,110.5,96L110.5,96z"></path>
				<path class="st4" d="M113,95.8c-0.1,1.2-0.3,2.7-1.5,3.4c-0.7,0.1-1.4,0.8-2.1,0.3v-0.2C110.2,98,111.9,97,113,95.8L113,95.8z"></path>
				<path class="st4" d="M184.2,96.8c0.2,0.3-0.1,0.5-0.3,0.7c-0.3,0.3-0.7,0.2-1,0c-0.3-0.1-0.3-0.6-0.2-0.9s0.3-0.4,0.6-0.5      C183.7,96.2,184,96.5,184.2,96.8L184.2,96.8z"></path>
				<path class="st4" d="M117.3,98.8c0.6,1,0.3,2.3,0.6,3.4c-0.7,0.1-1-0.7-1.5-1.2c-0.9-1.3-0.8-3-1.2-4.5c0.1-0.1,0.2-0.1,0.3-0.1      c0.6,0.4,1.1,1.3,1.6,1.8C117,98.6,117.3,98.6,117.3,98.8L117.3,98.8z"></path>
				<path class="st4" d="M186.4,97.2c0,0.3-0.4,0.4-0.6,0.6c-0.3,0-0.6-0.2-0.8-0.4c-0.1-0.4,0.2-0.6,0.4-0.8      C185.8,96.5,186.3,96.7,186.4,97.2L186.4,97.2z"></path>
				<path class="st4" d="M191.5,101c0,0.1,0,0.4-0.3,0.3H191c-1.2-1.1-2.5-2.4-2.3-4.1h0.3C190.2,98.2,191.5,99.3,191.5,101      L191.5,101z"></path>
				<path class="st4" d="M188.3,99.6c0,0.3-0.2,0.6-0.4,0.8c-0.5,0.1-1.2,0.1-1.3-0.6c0-0.4,0.4-0.6,0.6-0.9      C187.8,98.9,188.1,99.3,188.3,99.6L188.3,99.6z"></path>
				<path class="st4" d="M185.4,100.6c-0.6,1.6-2.2,2.4-3.4,3.6c-0.2-0.1-0.1-0.5-0.1-0.6c0.4-1.6,1.7-3.2,3.3-3.9      C186,99.7,185.3,100.2,185.4,100.6L185.4,100.6z"></path>
				<path class="st4" d="M188.7,101.9c0,0.4-0.4,0.6-0.6,0.8c-0.3,0-0.7-0.1-0.9-0.5c0-0.4,0.3-0.6,0.6-0.8      C188.1,101.3,188.5,101.5,188.7,101.9L188.7,101.9z"></path>
				<path class="st4" d="M156.7,23.2c0.6,0,1.1,0.5,1.1,1.1s-0.5,1.1-1.1,1.1h-12.8c-0.6,0-1.1-0.5-1.1-1.1s0.5-1.1,1.1-1.1H156.7      L156.7,23.2z M147.6,25.1c1.2,0,0.1-1.5-0.6-1.5h-1.2c-1.2,0-0.1,1.5,0.6,1.5H147.6L147.6,25.1z M152.9,25.1      c1.2,0,0.1-1.5-0.6-1.5H151c-1.2,0-0.1,1.5,0.6,1.5H152.9L152.9,25.1z M156.7,23.5h-0.5c-1.2,0-0.2,1.5,0.5,1.5      C157.6,25.1,157.6,23.5,156.7,23.5L156.7,23.5z"></path>
				<path class="st4" d="M155.5,37.8l2.4,0.9l2.4-0.9l-0.9,3.6l1.9-0.4l-0.6,2.2l0.6,2.1l-1.7-0.5l0.7,3.9l-2.4-0.9l-2.4,0.9l1-3.9      l-1.9,0.5l0.5-2.2l-0.5-2.1l1.9,0.3L155.5,37.8L155.5,37.8z M159.1,44.3c0.5,0,0.6-0.8,0.6-1.4c0-1.5-1.2,0-1.8-1.4      c-0.4,1.2-1.6,0.1-1.6,1.3c0,0.9,0,1.4,0.9,1.4h1.9V44.3z M156.7,43c0,0.6,0.8,0.2,1.3,0.2s1.3,0.4,1.3-0.2      c0-0.8-0.8-0.5-1.3-0.5S156.7,42.2,156.7,43L156.7,43z"></path>
				<polygon class="st4" points="149.8,43.1 149.8,42.7 149.4,42.6 149.7,42.3 149.5,41.9 150,41.9 150.2,41.5 150.5,41.9      150.9,41.9 150.7,42.3 151,42.6 150.6,42.7 150.6,43.1 150.2,42.8    "></polygon>
				<polygon class="st4" points="147.9,45.6 147.9,45.1 147.5,45 147.9,44.7 147.7,44.3 148.1,44.4 148.3,43.9 148.6,44.4 149,44.3      148.8,44.7 149.1,45 148.7,45.1 148.7,45.6 148.3,45.3    "></polygon>
				<polygon class="st4" points="151.2,45.2 151.2,44.8 150.7,44.7 151.1,44.4 150.9,44 151.3,44.1 151.5,43.6 151.8,44.1 152.2,44      152,44.4 152.3,44.7 151.9,44.8 151.9,45.2 151.5,45    "></polygon>
				<polygon class="st4" points="151.5,47.1 151.5,46.8 151.3,46.8 151.5,46.6 151.4,46.4 151.6,46.4 151.7,46.1 151.9,46.4      152.1,46.4 152,46.6 152.2,46.8 152,46.8 152,47.1 151.7,46.9    "></polygon>
				<polygon class="st4" points="148.5,49.1 148.5,48.4 147.8,48.2 148.4,47.7 148.1,47 148.8,47.1 149.2,46.3 149.6,47.1 150.4,47      150,47.7 150.6,48.2 149.9,48.4 149.9,49.1 149.2,48.7    "></polygon>
				<polygon class="st4" points="150.1,8.3 151.6,12 155.4,10.9 153.5,14.4 156.7,16.7 152.8,17.4 153,21.4 150.1,18.7 147.1,21.4      147.3,17.4 143.4,16.7 146.7,14.4 144.7,10.9 148.6,12    "></polygon>
				<path class="st4" d="M136.2,91.8c-0.5,0.2-0.6,0.3-0.5,0.8l0.5,2.3c0.1,0.4,0.1,1.1-0.2,1.5c-0.3,0.5-1,0.8-1.6,0.9      c-0.4,0.1-1.2,0.2-1.8,0c-0.4-0.2-0.7-0.4-0.9-1.2l-0.6-2.4c-0.1-0.6-0.4-0.6-0.9-0.5V93l2.9-0.7v0.2c-0.6,0.2-0.8,0.2-0.7,0.9      l0.6,2.4c0.1,0.4,0.3,1.4,1.6,1.1c1.5-0.4,1.3-1.5,1.2-1.9l-0.5-2.2c-0.1-0.4-0.3-0.7-1-0.5v-0.2l1.9-0.5V91.8L136.2,91.8z"></path>
				<path class="st4" d="M140.5,92.3c-0.3-0.5-1-1.2-2-1c-0.4,0.1-0.9,0.4-0.8,0.9c0.1,0.4,0.3,0.5,1.1,0.7l1.4,0.2      c0.3,0.1,1.1,0.3,1.2,1.1c0.1,0.6-0.2,1.6-1.8,2c-0.8,0.2-1.3,0-1.5,0.1c-0.2,0-0.2,0.2-0.2,0.3l-0.2,0.1l-0.4-1.8l0.2-0.1      c0.3,0.7,1,1.4,2.1,1.1c1-0.2,0.9-1,0.9-1c-0.1-0.5-0.5-0.6-1.2-0.7l-0.6-0.1c-1.6-0.3-1.7-0.9-1.8-1.2c-0.1-0.4,0-1.5,1.6-1.8      c0.7-0.2,1.1,0,1.4-0.1c0.2,0,0.2-0.2,0.2-0.3l0.3-0.1l0.3,1.6L140.5,92.3L140.5,92.3z"></path>
				<path class="st4" d="M146.1,95.1l-3.1,0.3v-0.2c0.6-0.1,0.8-0.1,0.8-0.8l-0.4-3.9c-0.6,0.1-1.5,0.2-1.6,1.4h-0.3l-0.1-1.5      l5.2-0.5l0.2,1.5h-0.3c-0.3-1.2-1.2-1.1-1.8-1.1l0.4,3.9c0.1,0.6,0.3,0.6,0.9,0.6L146.1,95.1L146.1,95.1z"></path>
				<path class="st4" d="M153.4,95.1h-1.8l-1.8-2.3h-0.2v1.4c0,0.6,0.2,0.6,0.8,0.7v0.2l-3-0.1v-0.2c0.6,0,0.8-0.1,0.8-0.7l0.1-3.3      c0-0.6-0.3-0.7-0.8-0.7v-0.2l2.8,0.1c0.6,0,2.5,0.1,2.4,1.3c0,0.9-0.9,1.1-1.4,1.2l1.7,2.1c0.1,0.1,0.2,0.1,0.4,0.1V95.1      L153.4,95.1z M149.6,92.5c1.1,0,1.6-0.1,1.6-1.1c0-0.7-0.3-1.1-1-1.1c-0.5,0-0.5,0.1-0.5,0.3L149.6,92.5L149.6,92.5z"></path>
				<path class="st4" d="M159.2,95.9l-2.8-0.4v-0.2c0.5,0,0.7,0,0.7-0.2s-0.2-0.8-0.3-1l-2-0.2c-0.3,0.5-0.5,0.8-0.5,0.9      c0,0.3,0.4,0.4,0.7,0.4v0.2l-1.8-0.2V95c0.5,0,0.6-0.2,1-0.7l2.4-3.8h0.2l1.5,4.1c0.3,0.8,0.4,1.1,0.8,1.1L159.2,95.9L159.2,95.9      z M156.7,93.8l-0.7-1.9l-1,1.7L156.7,93.8L156.7,93.8z"></path>
				<path class="st4" d="M164.3,96.9l-5-0.9v-0.2c0.5,0,0.8,0.1,0.8-0.4l0.6-3.5c0.1-0.5-0.3-0.6-0.6-0.7V91l3,0.6v0.2      c-0.6-0.1-0.9-0.1-1,0.5l-0.6,3.4c-0.1,0.3,0.1,0.4,0.7,0.5c1.3,0.2,1.9-0.3,2.4-1h0.2L164.3,96.9L164.3,96.9z"></path>
				<path class="st4" d="M167.6,97.7l-3-0.6v-0.2c0.5,0.1,0.8,0.1,0.9-0.3l0.7-3.5c0.1-0.5-0.3-0.6-0.7-0.7v-0.2l3,0.6V93      c-0.4-0.1-0.8-0.1-0.9,0.3l-0.7,3.5c-0.1,0.5,0.2,0.6,0.7,0.7V97.7L167.6,97.7z"></path>
				<path class="st4" d="M173.7,98.4l-2.8-0.3v-0.2c0.5,0,0.7,0,0.7-0.2s-0.2-0.8-0.3-1l-2-0.2c-0.3,0.5-0.5,0.8-0.5,0.9      c0,0.3,0.4,0.3,0.7,0.4V98l-1.8-0.2v-0.2c0.5,0,0.6-0.2,0.9-0.8l2.3-3.8h0.2l1.6,4.1c0.3,0.8,0.4,1.1,0.8,1.1L173.7,98.4      L173.7,98.4z M171.2,96.4l-0.7-1.9l-1,1.7L171.2,96.4L171.2,96.4z"></path>
				<path class="st4" d="M151.3,39c0-1.8-1-0.1-1.5-1.6c-0.4,1.3-1.6,0.2-1.6,1.6c0,0.5,0.1,0.8,0.4,1v0.5c0,0.1,0.1,0.2,0.2,0.2h1.9      c0.1,0,0.2-0.1,0.2-0.2v-0.6C151.1,39.7,151.3,39.4,151.3,39L151.3,39z M149.7,39.4c-0.5,0-1.2,0.4-1.2-0.3      c0-0.9,0.6-0.7,1.1-0.7s1.3-0.2,1.3,0.7C151,39.7,150.3,39.4,149.7,39.4L149.7,39.4z"></path>
				<path class="st4" d="M166.7,60.7c0.5,0,0.8-0.3,0.8-0.7s-0.4-0.7-0.8-0.7c-0.4,0-0.8,0.3-0.8,0.7S166.2,60.7,166.7,60.7      L166.7,60.7z"></path>
				<path class="st4" d="M162.9,34.5c0,0-0.4,0.6-0.4,0.8s0.2,0.4,0.4,0.4s0.4-0.2,0.4-0.4C163.2,35.3,162.9,34.5,162.9,34.5      L162.9,34.5z"></path>
				<path class="st4" d="M136.9,34.5c0,0-0.4,0.6-0.4,0.8s0.2,0.4,0.4,0.4s0.4-0.2,0.4-0.4C137.3,35.3,136.9,34.5,136.9,34.5      L136.9,34.5z"></path>
				<path class="st4" d="M143.4,34.5c0,0-0.4,0.6-0.4,0.8s0.2,0.4,0.4,0.4s0.4-0.2,0.4-0.4C143.8,35.3,143.4,34.5,143.4,34.5      L143.4,34.5z"></path>
				<path class="st4" d="M149.9,34.5c0,0-0.4,0.6-0.4,0.8s0.2,0.4,0.4,0.4s0.4-0.2,0.4-0.4C150.3,35.3,149.9,34.5,149.9,34.5      L149.9,34.5z"></path>
				<path class="st4" d="M156.4,34.5c0,0-0.4,0.6-0.4,0.8s0.2,0.4,0.4,0.4s0.4-0.2,0.4-0.4C156.7,35.3,156.4,34.5,156.4,34.5      L156.4,34.5z"></path>
				<path class="st4" d="M136.9,43.5c0,0,0.4,0.6,0.4,0.8s-0.2,0.4-0.4,0.4s-0.4-0.2-0.4-0.4C136.5,44.2,136.9,43.5,136.9,43.5      L136.9,43.5z"></path>
				<path class="st4" d="M136.9,52.1c0,0,0.4,0.6,0.4,0.8s-0.2,0.4-0.4,0.4s-0.4-0.2-0.4-0.4C136.5,52.9,136.9,52.1,136.9,52.1      L136.9,52.1z"></path>
				<path class="st4" d="M137.9,59c0,0,0.4,0.6,0.4,0.8s-0.2,0.4-0.4,0.4s-0.4-0.2-0.4-0.4C137.5,59.7,137.9,59,137.9,59L137.9,59z"></path>
				<path class="st4" d="M143.4,62.6c0,0,0.4,0.6,0.4,0.8s-0.2,0.4-0.4,0.4s-0.4-0.2-0.4-0.4C143,63.4,143.4,62.6,143.4,62.6      L143.4,62.6z"></path>
				<path class="st4" d="M163.2,43.5c0,0-0.4,0.6-0.4,0.8s0.2,0.4,0.4,0.4s0.4-0.2,0.4-0.4C163.6,44.2,163.2,43.5,163.2,43.5      L163.2,43.5z"></path>
				<path class="st4" d="M163.2,52.1c0,0-0.4,0.6-0.4,0.8s0.2,0.4,0.4,0.4s0.4-0.2,0.4-0.4C163.6,52.9,163.2,52.1,163.2,52.1      L163.2,52.1z"></path>
				<path class="st4" d="M162.1,59c0,0-0.4,0.6-0.4,0.8s0.2,0.4,0.4,0.4s0.4-0.2,0.4-0.4C162.5,59.7,162.1,59,162.1,59L162.1,59z"></path>
				<path class="st4" d="M156.7,62.6c0,0-0.4,0.6-0.4,0.8s0.2,0.4,0.4,0.4s0.4-0.2,0.4-0.4C157.1,63.4,156.7,62.6,156.7,62.6      L156.7,62.6z"></path>
				<path class="st4" d="M150.1,66.5c0,0-0.4,0.6-0.4,0.8c0,0.2,0.2,0.4,0.4,0.4s0.4-0.2,0.4-0.4C150.5,67.2,150.1,66.5,150.1,66.5      L150.1,66.5z"></path>
				<path class="st4" d="M160.6,53.6c0.1,0.1,0.3,0.2,0.5,0.1l0.2-0.7c0,0-0.3-0.3-0.5-0.3c-0.7,0.2-1.4,0.2-1.8,0.9      c0,0.5,0.3,0.9,0.7,1.1c0.2-0.1,0.3,0.2,0.4,0.3c0,0.2-0.1,0.4-0.3,0.4c-0.5-0.5-1.3,0.2-1.7-0.5c0.2-0.6,0.5-1.3,0-1.9      c0-0.1,0.2-0.2,0.1-0.4c-0.2-0.6-0.8-0.1-1.2-0.1c-0.6-0.1-1.1,0.2-1.5,0.7c0,0.2,0.1,0.4,0.3,0.6c0.2,0,0.2,0,0.3,0.2l-0.4,0.2      c0.1,0.1,0.1,0.3,0.2,0.5c-0.3,0.1-0.6-0.3-0.7-0.5c0-0.3,0-0.9-0.4-1c-0.1,0-0.4,0.1-0.4,0.1c-0.1,0.1-0.2,0.4-0.2,0.7      s0.2,0.7,0.2,0.7s1.3,0.9,1.5,1.5c-0.4,0.7-0.4,1.8-1.2,2.2c-0.2,0.2-0.2,0.4-0.2,0.7l0.2,0.2c0.5-0.3,1.6-0.4,1.5-1.3      c0.2-0.4,0.4-0.8,0.8-1.1c0.4-0.1,0.8,0.1,0.9,0.5c-0.1,0.6-0.5,1-1.1,1.2c-0.1,0.1,0,0.2,0,0.3c0.2,0.3,0.6,0.2,0.9,0.1      c0.7-0.5,1-1.3,1.6-1.5c0.1,0.4-0.8,0.5-0.2,0.9c0.4-0.1,0.9,0,1.1-0.5c-0.3-0.7,1-1,0.2-1.6c0-0.6,0.7-0.9,0.6-1.5      c-0.2-0.7-1-0.7-1.2-1.3C160,53.4,160.4,53.4,160.6,53.6L160.6,53.6z"></path>
				<path class="st4" d="M130.8,61.1c0.4,0,0.8-0.3,0.8-0.7s-0.4-0.7-0.8-0.7c-0.4,0-0.8,0.3-0.8,0.7C130,60.7,130.3,61.1,130.8,61.1      L130.8,61.1z"></path>
				<path class="st4" d="M88.7,85.7c0.4,0,0.8-0.3,0.8-0.8c0-0.4-0.4-0.8-0.8-0.8s-0.8,0.3-0.8,0.8C87.9,85.3,88.2,85.7,88.7,85.7      L88.7,85.7z"></path>
				<path class="st4" d="M115.5,91.6L115.5,91.6L115.5,91.6L115.5,91.6L115.5,91.6C115.4,91.6,115.4,91.6,115.5,91.6L115.5,91.6h-0.2      l0,0l0,0v-0.1l0,0l0,0L115.5,91.6L115.5,91.6C115.5,91.6,115.4,91.6,115.5,91.6L115.5,91.6L115.5,91.6L115.5,91.6L115.5,91.6z       M115.4,91.6L115.4,91.6C115.4,91.5,115.4,91.5,115.4,91.6C115.4,91.5,115.4,91.5,115.4,91.6L115.4,91.6L115.4,91.6z"></path>
				<path class="st4" d="M115.6,91.5L115.6,91.5C115.5,91.5,115.5,91.5,115.6,91.5C115.5,91.5,115.5,91.5,115.6,91.5L115.6,91.5      C115.6,91.6,115.6,91.6,115.6,91.5C115.6,91.6,115.6,91.6,115.6,91.5C115.5,91.6,115.5,91.6,115.6,91.5      C115.5,91.6,115.5,91.6,115.6,91.5L115.6,91.5L115.6,91.5L115.6,91.5C115.5,91.6,115.5,91.6,115.6,91.5      C115.6,91.6,115.6,91.6,115.6,91.5C115.6,91.6,115.6,91.6,115.6,91.5L115.6,91.5C115.5,91.5,115.5,91.5,115.6,91.5      C115.5,91.5,115.5,91.5,115.6,91.5L115.6,91.5L115.6,91.5L115.6,91.5L115.6,91.5L115.6,91.5L115.6,91.5z"></path>
				<path class="st4" d="M115.9,91.5C115.8,91.5,115.8,91.5,115.9,91.5L115.9,91.5L115.9,91.5L115.9,91.5L115.9,91.5L115.9,91.5      L115.9,91.5h-0.2l0,0l0,0H115.9L115.9,91.5L115.9,91.5L115.9,91.5L115.9,91.5L115.9,91.5L115.9,91.5L115.9,91.5L115.9,91.5      L115.9,91.5L115.9,91.5L115.9,91.5C115.8,91.5,115.8,91.5,115.9,91.5C115.8,91.5,115.8,91.5,115.9,91.5L115.9,91.5L115.9,91.5      L115.9,91.5C115.8,91.5,115.8,91.5,115.9,91.5C115.8,91.5,115.8,91.5,115.9,91.5L115.9,91.5L115.9,91.5L115.9,91.5L115.9,91.5z"></path>
				<path class="st4" d="M115.9,91.6L115.9,91.6L115.9,91.6L115.9,91.6L115.9,91.6C115.9,91.5,115.9,91.5,115.9,91.6      c0.1-0.1,0.2-0.1,0.2,0C116,91.6,115.9,91.6,115.9,91.6L115.9,91.6L115.9,91.6z M115.9,91.6L115.9,91.6L115.9,91.6      C115.9,91.5,115.9,91.5,115.9,91.6C115.9,91.5,115.9,91.5,115.9,91.6L115.9,91.6L115.9,91.6z"></path>
				<path class="st4" d="M116,91.5L116,91.5C116.1,91.6,116.1,91.6,116,91.5C116.1,91.6,116.1,91.6,116,91.5      C116,91.6,116,91.6,116,91.5C116,91.6,116,91.6,116,91.5C116,91.6,116,91.6,116,91.5C116.1,91.6,116.1,91.6,116,91.5      C116.1,91.6,116.1,91.6,116,91.5C116,91.6,116,91.6,116,91.5L116,91.5L116,91.5L116,91.5L116,91.5L116,91.5L116,91.5z"></path>
				<path class="st4" d="M165,33.5L165,33.5h-30l0,0l0,0v22.9c0,2.3,1,4.4,2.4,5l11.5,7.3c0.3,0.3,0.6,0.5,1.1,0.5      c0.4,0,0.7-0.1,0.9-0.4l11.7-7.4c1.4-0.6,2.4-2.7,2.4-5L165,33.5L165,33.5L165,33.5z M164.2,56.7c-0.2,1.7-0.7,3.2-1.9,4      L151,67.9h-0.1c-0.2,0.2-0.5,0.3-0.9,0.3c-0.3,0-0.6-0.1-0.9-0.3l-11.3-7.2c-1.2-0.8-1.8-2.3-1.9-4V34.3h28.3L164.2,56.7      L164.2,56.7z"></path>
				<path class="st4" d="M154.1,66.9l0.4-0.2C154.3,66.8,154.2,66.8,154.1,66.9L154.1,66.9z"></path>
				<path class="st4" d="M131.4,98.2l-2.8,0.3v-0.2c0.5-0.1,0.7-0.1,0.7-0.4c0-0.2-0.4-0.7-0.5-0.9l-2,0.2c-0.2,0.6-0.3,0.9-0.3,1      c0,0.3,0.5,0.3,0.8,0.2v0.2l-1.8,0.2v-0.2c0.5-0.1,0.6-0.4,0.8-1l1.5-4.2h0.2l2.4,3.6c0.5,0.7,0.7,1,1.1,0.9L131.4,98.2      L131.4,98.2z M128.6,96.8l-1.1-1.7l-0.6,1.9L128.6,96.8L128.6,96.8z"></path>
				<path class="st4" d="M181.1,87.5c-0.5-1.3-1.6-2.3-2.9-2.7c-1.4-0.3-2.8-0.1-3.7,1c-1.5,1.3-0.5,3.3-0.4,5c0,0.3,0,0.6-0.3,0.8      c-6.2-0.6-12-2.1-18.2-2.8c-1.4-0.2-2.8-0.2-4.2-0.5l-1.7-0.2c-5.4,0.2-10.8,0.5-15.8,1.8c-1.1,0.3-2.3,0.4-3.4,0.8      c-0.8-0.1-1.4,0.4-2.2,0.2l-1.4,0.3c-0.1,0-0.3,0-0.5,0c-0.7-1.8,1.4-2.9,0.7-4.6c-0.6-1-1.7-1.9-3-1.8c-1.5-0.2-2.8,0.6-3.4,1.8      c-1,2.2,0.3,4.4,0.6,6.5c-0.1,0.7,0.7,1.5,0,2c-1.4-1-3.2-1.5-4.9-1c-0.5,0.3-1.5-0.1-1.7,0.5c1.8,1,4.2,0.9,6.3,0.8      c0.3-0.1,0.4-0.1,0.6,0c0.2,1.1-0.2,2.6,0.5,3.6c0.8,1,2.1,1.3,3.3,1.4c4-0.1,7.5-1.3,11.1-2.2c0.6,0,1-0.3,1.6-0.3      c1.9-0.4,4-0.8,6.1-0.8c-0.9,1.2-1.4,2.5-1.8,3.9c-0.5,1.2,0.9,1.3,1.3,2c-1.3,0.4-2.3,1.3-3.5,1.8c-2.8-0.1-5.1,1-7.7,1.3      c0,0.6,0.9,0.4,1,1c-0.1,0.4-0.5,0.4-0.8,0.6c0,0.3,0,0.3,0.3,0.3c0.3-0.3,0.8-0.1,1.1-0.4c0.9,0,1.6-0.3,2.4-0.3      c0.7-0.3,1.5-0.3,2.2-0.9c0.9-0.3,1.5-0.9,2.4-1.1c1.3,0,2.5-0.4,3.7-0.5v0.3c-1,1.6-2,3.2-3.1,4.8c-0.2,0.3,0,0.6,0.3,0.7      c0.6,0.2,1.2,0,1.7-0.3c0.9-1.6,1.7-3,2.5-4.6c0.3-1.5,1.4-2.3,2.5-3.2c0.2-0.1,0.4-0.3,0.6-0.1c-0.9,1-1.4,1.9-2.1,3      c-0.3,1.2-0.4,2.8,0.6,3.8c0.5,0.4,1.3,0.3,2,0.3c1.7-0.9,3.8,0.5,5.1-1.1c0.8-0.1,0.9,0.8,1.3,1.2c0.7,0.2,1.5,1,2.2,0.4      c0-0.5-0.6-0.9-0.8-1.3c-0.5-0.9-1.2-1.6-1.6-2.5c-0.2-0.6-0.6-1-0.7-1.6c0.8,0.3,1.5,0.8,2.3,0.9c0.7,0.3,1.6,0.3,2.3,0.7      c0.6,0.7,1.4,1.2,2.1,1.6c1.1,0.5,2.3,0.6,3.4,1c0.4,0,1.1,0.4,1.4,0c-0.2-0.2-0.4-0.3-0.6-0.5c-0.1-0.6,0.8-0.3,1.1-0.7      c-0.1-0.2-0.3-0.3-0.5-0.3c-0.6-0.3-2.1-0.4-2.6-0.7c-0.5-0.1-1-0.3-1.5-0.5c-2.6,0-4-2.3-6.1-3.2c0.5-0.4,1.2-0.8,1.5-1.4      c0.4-0.6,0.5-1.6,0.1-2.3c-0.4-1.3-2.1-1.2-3.1-1.9l0.1-0.1c1.7-0.1,3.1,0.3,4.6,0.6c4.1,0.6,8,2.1,12.3,2.2      c2.4,0,5.3,0.1,6.5-2.2c0.2-1.3,0.5-2.7,0.7-4C179.9,91.9,181.3,89.9,181.1,87.5L181.1,87.5z M134.6,107.2l-0.6-0.6      c0.3-0.4,0.9-0.2,1.4-0.4c1.1-0.3,2.4-0.8,3.7-0.5C137.8,106.8,136.1,106.9,134.6,107.2L134.6,107.2z M161.5,106.5      c1,0.5,3.1,0.9,4.6,1.1c-0.1,0.6-1.2,0-1.1,0.9c-1.3-0.5-2.9-0.8-3.9-1.8C161.2,106.6,161.3,106.5,161.5,106.5L161.5,106.5z       M121.1,88.1c0.1-0.8,0.3-1.6,1-2.2c1-0.6,2.5-0.4,3.4,0.1c0.3,0.2,0.5,0.4,0.7,0.8c0.2,0.7-0.1,1.5-0.6,2h-0.4      c0-0.7,0-1.4,0.3-2c0-0.5-0.5-0.6-0.8-0.8c-0.7-0.2-1.4,0.1-1.9,0.4c-0.4,0.5-0.8,1.2-0.6,1.9c0.3,0.5,0,1.1,0.2,1.6l-0.1,0.2      C121.7,89.7,121,89.1,121.1,88.1L121.1,88.1z M123.2,89.4c0.6,0.5,1.5,0.3,2.3,0.4c0.1,0.5,0.1,1.1-0.2,1.5      c-0.7-0.2-1.7-0.1-2.1-0.8C123.3,90.1,123.1,89.7,123.2,89.4L123.2,89.4z M123,87.9c0.1-0.3,0-0.9,0.5-1c0.3-0.1,0.8-0.1,0.8,0.3      c0,0.5-0.1,1-0.2,1.5C123.5,88.8,123.2,88.4,123,87.9L123,87.9z M143.2,101.8c-0.2-1.5,0.4-2.8,1.4-3.9c0.6-0.1,1.3-0.3,1.8,0.1      c-1.1,0.3-2.5,0.6-2.8,2c0,0.6-0.1,0.9,0.1,1.3c0.5,0.8,1.5,0.5,2.2,1.1c0,0.2-0.2,0.5-0.4,0.5      C144.8,102.6,143.9,102.4,143.2,101.8L143.2,101.8z M141.6,104.8c1-0.4,2.1-1.3,3.3-1C144.1,104.5,142.8,104.8,141.6,104.8      L141.6,104.8z M145.7,105.2c-0.6,1.4-1.3,2.7-2.1,4.1c-0.1,0.2-0.4,0.3-0.7,0.3c0-0.6,0.6-1.1,0.9-1.6c0.9-1.2,1.2-2.4,2.2-3.6      C146.2,104.7,145.7,104.9,145.7,105.2L145.7,105.2z M146.8,102.7v0.2h-0.1L146.8,102.7L146.8,102.7L146.8,102.7      C146.9,102.7,146.8,102.7,146.8,102.7L146.8,102.7L146.8,102.7z M146.4,101.6c-0.7-0.1-1.4-0.3-2.1-0.5c-0.4-0.4,0-0.9,0-1.4      c0.6-1,2.3-1.4,3.1-0.6C147.4,100,147,100.9,146.4,101.6L146.4,101.6z M147.4,101.6c0.1-0.6,0.4-1.3,0.7-1.8      C148,100.3,147.8,101.1,147.4,101.6L147.4,101.6z M147.8,98c-0.6-0.1-0.9-0.8-1.5-0.8c0.5-0.2,1-0.1,1.6,0      C148.2,97.5,147.9,97.8,147.8,98L147.8,98z M148.4,99.3L148.4,99.3v-0.5l0,0V99.3L148.4,99.3z M148.4,101.3      c0-0.2,0.1-0.4,0.1-0.6c0.2-0.2,0.4,0.2,0.5,0.3C148.9,101.3,148.7,101.4,148.4,101.3L148.4,101.3z M149,98.7      c0.2-0.6,0.3-1.1,0.6-1.6c0.4,0,0.8,0,1.2,0.2c0.1,0.9,1.2,2,0,2.8c-0.4,0.2-0.9,0.6-1.4,0.2C148.9,99.7,148.8,99.3,149,98.7      L149,98.7z M152.2,97.4c-0.1-0.4,0.4-0.1,0.6-0.3l1.3,0.1C153.4,97.2,152.5,98.8,152.2,97.4L152.2,97.4z M154.3,98      c-0.5,0.2-0.9,0.8-1.4,0.9C153.2,98.4,153.8,98,154.3,98L154.3,98z M152.5,100.7L152.5,100.7L152.5,100.7L152.5,100.7      L152.5,100.7L152.5,100.7z M152.6,103.3c0,0.1,0,0.2-0.1,0.3l-1-0.8C152,102.8,152.4,103,152.6,103.3L152.6,103.3z M151.5,102      c0.1-0.1,0.3-0.1,0.4,0H151.5L151.5,102z M150.9,101.3c0.2-0.3,0.4-0.6,0.7-0.6c0,0,0,0.1,0.1,0.1      C151.4,101,151.2,101.3,150.9,101.3L150.9,101.3z M149.9,101.3h-0.2l0.3-0.3C150.1,101.1,149.9,101.2,149.9,101.3L149.9,101.3z       M150,102.9c0.6-0.6,1.1,0.3,1.3,0.8c0.6,1,2.3,1.8,1.7,3.1c-0.8,0.7-2.1,0-3,0.6c-0.5,0-1.3,0.1-1.5-0.4      C148.9,105.7,149.3,104.1,150,102.9L150,102.9z M148.8,103.7l0.2-0.3c-0.3,1-0.9,2.1-1.4,3.1      C147.3,105.5,148.4,104.6,148.8,103.7L148.8,103.7z M150.7,108.9c-0.8,0-2.1,0.5-2.8-0.2c0-0.3-0.3-0.5-0.3-0.9      c0.7-0.3,1.3,0.6,1.9,0c1,0,2-0.1,3,0.1c0.5,0.1,1.2-0.8,1.3,0.1C153.4,109.4,151.7,108.4,150.7,108.9L150.7,108.9z M153.2,102.6      L153.2,102.6l0.1-0.1L153.2,102.6L153.2,102.6L153.2,102.6z M153.4,105.4c0,0.4,0.5,0.6,0.2,1      C153.6,106.2,153.3,105.8,153.4,105.4L153.4,105.4z M154.6,108l-0.2,0.1c-0.2-0.2-0.1-0.6-0.1-0.9      C154.6,107.4,154.8,107.7,154.6,108L154.6,108z M156.8,109c0,0.1-0.3,0.1-0.3,0c-1.3-1.6-1.9-3.4-2.7-5.2h0.2      C154.9,105.5,155.8,107.4,156.8,109L156.8,109z M158.4,105c-0.1,0-0.1,0.1-0.1,0.2c-1.2,0-2.1-0.7-3-1.3v-0.2      C156.4,103.7,157.3,104.5,158.4,105L158.4,105z M157.3,99.3c0.5,0.1,0.6,0.7,0.6,1.1c0,1-0.6,1.8-1.5,2.1      c-0.5,0.3-1.2,0.3-1.7,0.2c1,0,2.2-0.4,2.6-1.5L157.3,99.3L157.3,99.3z M156.3,99.1c0.2,0.6,0.6,1.2,0.4,1.9      c-0.4,0.8-1.3,0.8-2.1,1c-0.4,0-0.7-0.1-1-0.3c0-0.2,0-0.3-0.2-0.4c0.1-0.6-1-1.1-0.2-1.6C153.9,99,155.6,97.5,156.3,99.1      L156.3,99.1z M178.2,95.9c-0.3,0.4,0,1.1-0.5,1.5c0,0.8-0.6,1.2-1.2,1.5c-5.1,1.1-10.2-0.6-15.1-1.5c-6.9-1.5-15-1.9-22.1-0.3      c-3.3,0.6-6.5,1.4-9.7,2.3c-2,0.3-4.1,0.6-6,0c-1.5-0.7-0.9-2.7-1.4-4.1c0.1-1.1-0.3-1.9-0.3-3c-0.1-0.3-0.2-0.8-0.2-1.1      c0.6,0.1,1.3,0.6,2,0.7c3.6,0.7,6.8-0.5,10.2-1.1c3.2-0.7,6.5-1.3,9.9-1.5c3.9,0,7.8-0.3,11.5,0.4c1.2,0,2.2,0.3,3.4,0.4      c2.4,0.3,4.6,1,7.1,1.1c0.4,0.1,0.9,0.1,1.3,0.2c3.9,0.6,8.2,1.7,11.9,0C179,93,178.4,94.4,178.2,95.9L178.2,95.9z M177,90.6      c0,0.7-0.6,0.5-0.9,0.8h-1c-0.2-0.3-0.1-0.9-0.1-1.2C175.5,90.3,176.3,90.3,177,90.6L177,90.6z M176.5,89.6      c0.5-0.5-0.1-3.2,1.2-1.4c0,0.3,0,0.9-0.3,1.1C177.2,89.4,176.8,89.8,176.5,89.6L176.5,89.6z M180,89.1c-0.4,0.8-1,1.3-1.8,1.5      c0-1,1-1.8,0.6-2.9c-0.6-0.8-1.7-1.1-2.7-0.9c-0.4,0.3-0.2,0.7-0.3,1.1l-0.2,1.4c-0.9,0-0.9-0.8-1.2-1.4c0-0.9,0.4-1.8,1.3-2.3      c0.7-0.3,1.8-0.3,2.5,0.1c0.6,0.1,1.2,0.4,1.4,0.9C180.3,87.3,180.1,88.3,180,89.1L180,89.1z"></path>
				<polygon class="st4" points="15,157.6 15,156.2 285,156.2 285,157.6    "></polygon>
			</g>
		<g class="under-badge">
			<path class="st4" d="M30.6,186.2v-0.5h0.6c0.5,0,0.9-0.1,1.1-0.2c0.3-0.2,0.5-0.4,0.6-0.6c0.1-0.2,0.1-0.7,0.1-1.6V172     c0-0.9,0-1.4-0.1-1.7c-0.1-0.2-0.3-0.4-0.6-0.6c-0.3-0.2-0.7-0.2-1.1-0.2h-0.6V169h7.7c2.1,0,3.7,0.3,5,0.8     c1.5,0.7,2.7,1.7,3.5,3.1c0.8,1.4,1.2,3,1.2,4.7c0,1.2-0.2,2.3-0.6,3.3c-0.4,1-0.9,1.9-1.5,2.5c-0.6,0.7-1.3,1.2-2.1,1.6     c-0.8,0.4-1.8,0.7-3,0.9c-0.5,0.1-1.3,0.2-2.4,0.2h-7.8V186.2z M37.1,169.9v13.4c0,0.7,0,1.1,0.1,1.3s0.2,0.3,0.3,0.4     c0.2,0.1,0.6,0.2,1,0.2c1.4,0,2.5-0.5,3.2-1.4c1-1.3,1.5-3.3,1.5-6.1c0-2.2-0.3-4-1-5.3c-0.6-1-1.3-1.7-2.1-2.1     C39.6,170,38.6,169.9,37.1,169.9z"></path>
			<path class="st4" d="M59.3,179.8h-6.5c0.1,1.6,0.5,2.8,1.3,3.7c0.6,0.7,1.3,1.1,2.1,1.1c0.5,0,1-0.1,1.4-0.4     c0.4-0.3,0.9-0.8,1.3-1.5l0.4,0.3c-0.6,1.3-1.4,2.2-2.1,2.8c-0.8,0.5-1.7,0.8-2.7,0.8c-1.8,0-3.1-0.7-4-2     c-0.7-1.1-1.1-2.4-1.1-4.1c0-2,0.5-3.6,1.6-4.7c1.1-1.2,2.3-1.8,3.8-1.8c1.2,0,2.2,0.5,3.1,1.5C58.8,176.4,59.2,177.8,59.3,179.8z      M56.2,178.9c0-1.4-0.1-2.3-0.2-2.8c-0.1-0.5-0.4-0.9-0.7-1.2c-0.2-0.2-0.4-0.2-0.7-0.2c-0.4,0-0.8,0.2-1.1,0.6     c-0.5,0.8-0.7,1.8-0.7,3.1v0.4L56.2,178.9L56.2,178.9z"></path>
			<path class="st4" d="M64.9,184.9v4.4c0,0.6,0,1,0.1,1.2s0.2,0.4,0.5,0.5c0.2,0.1,0.6,0.2,1.2,0.2v0.5h-6.8v-0.5     c0.5,0,0.9-0.2,1.2-0.4c0.2-0.2,0.3-0.7,0.3-1.5v-12.5c0-0.8-0.1-1.4-0.3-1.6c-0.2-0.2-0.6-0.4-1.1-0.4v-0.5h5v1.6     c0.4-0.6,0.8-1.1,1.3-1.3c0.6-0.4,1.3-0.6,2-0.6c0.9,0,1.7,0.3,2.4,0.8c0.7,0.6,1.3,1.3,1.6,2.3c0.4,1,0.6,2,0.6,3.1     c0,1.2-0.2,2.3-0.6,3.3s-0.9,1.8-1.7,2.3c-0.7,0.5-1.5,0.8-2.4,0.8c-0.7,0-1.3-0.1-1.8-0.4C65.8,185.9,65.3,185.5,64.9,184.9z      M64.9,183.7c0.7,1,1.5,1.6,2.3,1.6c0.5,0,0.8-0.2,1.1-0.7c0.4-0.7,0.7-2.1,0.7-4.1c0-2.1-0.2-3.5-0.7-4.2     c-0.3-0.5-0.8-0.7-1.3-0.7c-0.9,0-1.6,0.6-2.1,1.9V183.7z"></path>
			<path class="st4" d="M80.8,184.4c-1.4,1.3-2.7,1.9-3.9,1.9c-0.7,0-1.2-0.2-1.7-0.7c-0.4-0.4-0.7-1-0.7-1.7c0-0.9,0.4-1.7,1.2-2.4     c0.8-0.7,2.5-1.7,5.1-2.9v-1.2c0-0.9,0-1.5-0.1-1.7s-0.3-0.4-0.6-0.6c-0.3-0.2-0.6-0.3-0.9-0.3c-0.6,0-1,0.1-1.4,0.4     c-0.2,0.2-0.3,0.3-0.3,0.5s0.1,0.4,0.4,0.7c0.3,0.4,0.5,0.7,0.5,1.1c0,0.4-0.2,0.8-0.5,1.1s-0.7,0.4-1.2,0.4s-1-0.2-1.3-0.5     c-0.4-0.3-0.5-0.7-0.5-1.1c0-0.6,0.2-1.2,0.7-1.7c0.5-0.6,1.2-1,2-1.3c0.9-0.3,1.8-0.4,2.7-0.4c1.1,0,2,0.2,2.7,0.7s1.1,1,1.3,1.6     c0.1,0.4,0.2,1.2,0.2,2.5v4.6c0,0.5,0,0.9,0.1,1c0,0.1,0.1,0.2,0.2,0.3s0.2,0.1,0.3,0.1c0.2,0,0.4-0.2,0.7-0.5l0.4,0.3     c-0.4,0.6-0.9,1.1-1.3,1.4c-0.5,0.3-1,0.4-1.5,0.4c-0.7,0-1.2-0.2-1.6-0.5C81.1,185.5,80.8,185,80.8,184.4z M80.8,183.5v-4     c-1,0.6-1.8,1.2-2.3,1.9c-0.3,0.5-0.5,0.9-0.5,1.4c0,0.4,0.1,0.7,0.4,1c0.2,0.2,0.5,0.3,0.9,0.3C79.7,184.2,80.2,183.9,80.8,183.5     z"></path>
			<path class="st4" d="M91.4,174.3v2.7c0.8-1.2,1.5-2,2.1-2.4s1.2-0.6,1.7-0.6s0.9,0.1,1.1,0.4c0.3,0.3,0.4,0.7,0.4,1.2     c0,0.6-0.1,1-0.4,1.3s-0.6,0.5-1,0.5s-0.8-0.1-1.2-0.4c-0.3-0.3-0.5-0.4-0.6-0.5s-0.2-0.1-0.3-0.1c-0.2,0-0.5,0.1-0.7,0.3     c-0.3,0.3-0.6,0.7-0.8,1.2c-0.3,0.8-0.4,1.7-0.4,2.7v2.7v0.7c0,0.5,0,0.8,0.1,0.9c0.1,0.2,0.3,0.4,0.5,0.5s0.5,0.2,1,0.2v0.5h-6.4     v-0.5c0.5,0,0.9-0.2,1-0.4c0.2-0.2,0.3-0.9,0.3-1.9v-6.6c0-0.7,0-1.1-0.1-1.3s-0.2-0.4-0.4-0.5c-0.2-0.1-0.4-0.2-0.9-0.2v-0.5h5     V174.3z"></path>
			<path class="st4" d="M102.7,169.9v4.3h2.8v1.3h-2.8v7.3c0,0.7,0,1.1,0.1,1.3s0.2,0.4,0.3,0.5s0.3,0.2,0.4,0.2     c0.6,0,1.1-0.4,1.6-1.3l0.4,0.3c-0.7,1.6-1.8,2.4-3.3,2.4c-0.8,0-1.4-0.2-1.9-0.6c-0.5-0.4-0.9-0.9-1-1.4     c-0.1-0.3-0.1-1.1-0.1-2.3v-6.4h-1.6v-0.4c1.1-0.8,2-1.5,2.7-2.4c0.7-0.8,1.4-1.8,2-2.8L102.7,169.9L102.7,169.9z"></path>
			<path class="st4" d="M111.6,174.3v1.6c0.7-0.7,1.3-1.2,1.8-1.5c0.6-0.3,1.2-0.4,1.8-0.4c0.8,0,1.4,0.2,1.9,0.5     c0.5,0.4,0.9,0.9,1.2,1.6c0.7-0.8,1.3-1.3,2-1.7c0.6-0.3,1.3-0.5,2-0.5c0.8,0,1.5,0.2,2,0.6c0.5,0.4,0.8,0.9,1,1.4     c0.2,0.6,0.3,1.5,0.3,2.8v4.9c0,0.9,0.1,1.5,0.2,1.7c0.2,0.2,0.5,0.4,1,0.4v0.5h-6.1v-0.5c0.5,0,0.8-0.2,1.1-0.6     c0.2-0.2,0.2-0.8,0.2-1.6v-5.1c0-1.1,0-1.7-0.1-2s-0.2-0.5-0.4-0.6c-0.2-0.1-0.4-0.2-0.6-0.2c-0.4,0-0.7,0.1-1.1,0.4     c-0.4,0.3-0.7,0.7-1.1,1.2v6.4c0,0.9,0.1,1.4,0.2,1.6c0.2,0.3,0.6,0.5,1.1,0.5v0.5h-6.2v-0.5c0.3,0,0.6-0.1,0.8-0.2     s0.3-0.3,0.4-0.5s0.1-0.7,0.1-1.4v-5.1c0-1.1,0-1.7-0.1-2s-0.2-0.5-0.4-0.6c-0.2-0.2-0.4-0.2-0.6-0.2c-0.3,0-0.6,0.1-0.9,0.3     c-0.4,0.3-0.8,0.7-1.3,1.3v6.4c0,0.8,0.1,1.4,0.2,1.7c0.2,0.3,0.5,0.4,1,0.5v0.5h-6.1v-0.5c0.5-0.1,0.9-0.2,1.1-0.5     c0.1-0.2,0.2-0.7,0.2-1.7V177c0-0.9-0.1-1.5-0.2-1.7c-0.2-0.2-0.5-0.4-1-0.4v-0.5L111.6,174.3L111.6,174.3z"></path>
			<path class="st4" d="M137.6,179.8h-6.5c0.1,1.6,0.5,2.8,1.3,3.7c0.6,0.7,1.3,1.1,2.1,1.1c0.5,0,1-0.1,1.4-0.4s0.9-0.8,1.3-1.5     l0.4,0.3c-0.6,1.3-1.4,2.2-2.1,2.8c-0.8,0.5-1.7,0.8-2.7,0.8c-1.8,0-3.1-0.7-4-2c-0.7-1.1-1.1-2.4-1.1-4.1c0-2,0.5-3.6,1.6-4.7     c1.1-1.2,2.3-1.8,3.8-1.8c1.2,0,2.2,0.5,3.1,1.5C137.1,176.4,137.5,177.8,137.6,179.8z M134.5,178.9c0-1.4-0.1-2.3-0.2-2.8     c-0.1-0.5-0.4-0.9-0.7-1.2c-0.2-0.2-0.4-0.2-0.7-0.2c-0.4,0-0.8,0.2-1.1,0.6c-0.5,0.8-0.7,1.8-0.7,3.1v0.4L134.5,178.9     L134.5,178.9z"></path>
			<path class="st4" d="M143.7,174.3v1.5c0.6-0.7,1.2-1.1,1.8-1.4c0.6-0.3,1.2-0.5,1.8-0.5c0.8,0,1.4,0.2,1.9,0.6     c0.5,0.4,0.8,1,1,1.6c0.1,0.5,0.2,1.4,0.2,2.8v4.6c0,0.9,0.1,1.5,0.2,1.7c0.2,0.2,0.5,0.4,1,0.4v0.5h-6v-0.5     c0.4-0.1,0.8-0.2,1-0.6c0.1-0.2,0.2-0.7,0.2-1.6v-5.3c0-1,0-1.6-0.1-1.8c-0.1-0.3-0.2-0.5-0.4-0.6s-0.4-0.2-0.6-0.2     c-0.7,0-1.4,0.5-2,1.6v6.4c0,0.9,0.1,1.5,0.2,1.7c0.2,0.2,0.5,0.4,0.9,0.4v0.5h-6v-0.5c0.5-0.1,0.9-0.2,1.1-0.5     c0.1-0.2,0.2-0.7,0.2-1.7v-6.7c0-0.9-0.1-1.5-0.2-1.7c-0.2-0.2-0.5-0.4-1-0.4v-0.5h4.8V174.3z"></path>
			<path class="st4" d="M157.1,169.9v4.3h2.8v1.3h-2.8v7.3c0,0.7,0,1.1,0.1,1.3s0.2,0.4,0.3,0.5c0.2,0.1,0.3,0.2,0.4,0.2     c0.6,0,1.1-0.4,1.6-1.3l0.4,0.3c-0.7,1.6-1.8,2.4-3.3,2.4c-0.8,0-1.4-0.2-1.9-0.6c-0.5-0.4-0.9-0.9-1-1.4     c-0.1-0.3-0.1-1.1-0.1-2.3v-6.4H152v-0.4c1.1-0.8,2-1.5,2.7-2.4c0.7-0.8,1.4-1.8,2-2.8L157.1,169.9L157.1,169.9z"></path>
			<path class="st4" d="M172.3,173.9c1,0,2,0.3,2.9,0.8s1.6,1.3,2,2.3c0.5,1,0.7,2.1,0.7,3.2c0,1.7-0.4,3.1-1.3,4.2     c-1,1.4-2.5,2.1-4.3,2.1s-3.2-0.6-4.1-1.9c-1-1.3-1.4-2.7-1.4-4.4s0.5-3.2,1.5-4.5C169.2,174.5,170.6,173.9,172.3,173.9z      M172.3,174.8c-0.4,0-0.8,0.2-1.1,0.5s-0.5,1-0.6,1.9c-0.1,1-0.1,2.3-0.1,4c0,0.9,0.1,1.8,0.2,2.5c0.1,0.6,0.3,1.1,0.6,1.4     c0.3,0.3,0.7,0.5,1,0.5c0.4,0,0.7-0.1,1-0.3c0.3-0.3,0.6-0.7,0.7-1.2c0.2-0.8,0.3-2.4,0.3-4.9c0-1.4-0.1-2.4-0.2-3     s-0.4-0.9-0.7-1.2C173,174.9,172.7,174.8,172.3,174.8z"></path>
			<path class="st4" d="M184.4,175.5v8.2c0,0.8,0.1,1.3,0.3,1.5c0.3,0.3,0.8,0.5,1.5,0.4v0.5h-7v-0.5c0.5,0,0.9-0.1,1.1-0.2     c0.2-0.1,0.4-0.3,0.5-0.5s0.1-0.6,0.1-1.3v-8.2h-1.7v-1.2h1.7v-0.9v-0.6c0-1.2,0.4-2.2,1.3-3s2.1-1.2,3.6-1.2c1,0,1.8,0.2,2.3,0.6     c0.5,0.4,0.8,0.8,0.8,1.3c0,0.4-0.2,0.7-0.5,1s-0.7,0.4-1.2,0.4c-0.4,0-0.8-0.1-1-0.3c-0.3-0.2-0.4-0.5-0.4-0.8     c0-0.1,0-0.2,0.1-0.5c0-0.1,0.1-0.3,0.1-0.4c0-0.2-0.1-0.3-0.2-0.4c-0.1-0.1-0.3-0.2-0.5-0.2s-0.5,0.1-0.6,0.3     c-0.2,0.2-0.2,0.5-0.2,1v2.2v1.5h1.8v1.2L184.4,175.5L184.4,175.5z"></path>
			<path class="st4" d="M199.9,169.9v7.1h0.5c0.8,0,1.4-0.1,1.9-0.3s0.9-0.6,1.2-1.2s0.6-1.3,0.7-2.2h0.4v8.7h-0.4     c-0.2-1.6-0.6-2.7-1.3-3.2s-1.5-0.8-2.4-0.8H200v5.3c0,0.9,0,1.4,0.1,1.7c0.1,0.2,0.3,0.4,0.6,0.6c0.3,0.2,0.7,0.2,1.2,0.2h0.6     v0.5h-9v-0.5h0.6c0.5,0,0.9-0.1,1.2-0.3c0.2-0.1,0.4-0.3,0.5-0.6c0.1-0.2,0.1-0.7,0.1-1.6V172c0-0.9,0-1.4-0.1-1.7     c-0.1-0.2-0.3-0.4-0.6-0.6c-0.3-0.2-0.7-0.2-1.2-0.2h-0.6V169h14.5v4.9h-0.5c-0.1-1.2-0.4-2-0.9-2.6s-1.2-1-2.1-1.2     c-0.5-0.1-1.4-0.2-2.8-0.2L199.9,169.9L199.9,169.9z"></path>
			<path class="st4" d="M213.3,174.3v9.4c0,0.8,0.1,1.4,0.3,1.6s0.6,0.4,1.1,0.4v0.5h-6.4v-0.5c0.5,0,0.9-0.2,1.2-0.5     c0.2-0.2,0.3-0.7,0.3-1.6v-6.9c0-0.8-0.1-1.4-0.3-1.6c-0.2-0.2-0.6-0.4-1.1-0.4v-0.5h4.9V174.3z M211.6,168.5c0.6,0,1,0.2,1.4,0.6     c0.4,0.4,0.6,0.8,0.6,1.4c0,0.5-0.2,1-0.6,1.4c-0.4,0.4-0.8,0.6-1.4,0.6c-0.5,0-1-0.2-1.4-0.6c-0.4-0.4-0.6-0.8-0.6-1.4     c0-0.5,0.2-1,0.6-1.4C210.6,168.7,211,168.5,211.6,168.5z"></path>
			<path class="st4" d="M220.5,174.3v1.5c0.6-0.7,1.2-1.1,1.8-1.4c0.6-0.3,1.2-0.5,1.8-0.5c0.8,0,1.4,0.2,1.9,0.6     c0.5,0.4,0.8,1,1,1.6c0.1,0.5,0.2,1.4,0.2,2.8v4.6c0,0.9,0.1,1.5,0.2,1.7c0.2,0.2,0.5,0.4,1,0.4v0.5h-6v-0.5     c0.4-0.1,0.8-0.2,1-0.6c0.1-0.2,0.2-0.7,0.2-1.6v-5.3c0-1,0-1.6-0.1-1.8c-0.1-0.3-0.2-0.5-0.4-0.6s-0.4-0.2-0.6-0.2     c-0.7,0-1.4,0.5-2,1.6v6.4c0,0.9,0.1,1.5,0.2,1.7c0.2,0.2,0.5,0.4,0.9,0.4v0.5h-6v-0.5c0.5-0.1,0.9-0.2,1.1-0.5     c0.1-0.2,0.2-0.7,0.2-1.7v-6.7c0-0.9-0.1-1.5-0.2-1.7c-0.2-0.2-0.5-0.4-1-0.4v-0.5h4.8V174.3z"></path>
			<path class="st4" d="M235.7,184.4c-1.4,1.3-2.7,1.9-3.9,1.9c-0.7,0-1.2-0.2-1.7-0.7c-0.4-0.4-0.7-1-0.7-1.7c0-0.9,0.4-1.7,1.2-2.4     s2.5-1.7,5.1-2.9v-1.2c0-0.9,0-1.5-0.1-1.7s-0.3-0.4-0.6-0.6c-0.3-0.2-0.6-0.3-0.9-0.3c-0.6,0-1,0.1-1.4,0.4     c-0.2,0.2-0.3,0.3-0.3,0.5s0.1,0.4,0.4,0.7c0.3,0.4,0.5,0.7,0.5,1.1c0,0.4-0.2,0.8-0.5,1.1s-0.7,0.4-1.2,0.4s-1-0.2-1.3-0.5     c-0.4-0.3-0.5-0.7-0.5-1.1c0-0.6,0.2-1.2,0.7-1.7c0.5-0.6,1.2-1,2-1.3c0.9-0.3,1.8-0.4,2.7-0.4c1.1,0,2,0.2,2.7,0.7s1.1,1,1.3,1.6     c0.1,0.4,0.2,1.2,0.2,2.5v4.6c0,0.5,0,0.9,0.1,1c0,0.1,0.1,0.2,0.2,0.3c0.1,0.1,0.2,0.1,0.3,0.1c0.2,0,0.4-0.2,0.7-0.5l0.4,0.3     c-0.4,0.6-0.9,1.1-1.3,1.4c-0.5,0.3-1,0.4-1.5,0.4c-0.7,0-1.2-0.2-1.6-0.5C236,185.5,235.8,185,235.7,184.4z M235.7,183.5v-4     c-1,0.6-1.8,1.2-2.3,1.9c-0.3,0.5-0.5,0.9-0.5,1.4c0,0.4,0.1,0.7,0.4,1c0.2,0.2,0.5,0.3,0.9,0.3     C234.6,184.2,235.1,183.9,235.7,183.5z"></path>
			<path class="st4" d="M246.5,174.3v1.5c0.6-0.7,1.2-1.1,1.8-1.4c0.6-0.3,1.2-0.5,1.8-0.5c0.8,0,1.4,0.2,1.9,0.6     c0.5,0.4,0.8,1,1,1.6c0.1,0.5,0.2,1.4,0.2,2.8v4.6c0,0.9,0.1,1.5,0.2,1.7c0.2,0.2,0.5,0.4,1,0.4v0.5h-6v-0.5     c0.4-0.1,0.8-0.2,1-0.6c0.1-0.2,0.2-0.7,0.2-1.6v-5.3c0-1,0-1.6-0.1-1.8c-0.1-0.3-0.2-0.5-0.4-0.6s-0.4-0.2-0.6-0.2     c-0.7,0-1.4,0.5-2,1.6v6.4c0,0.9,0.1,1.5,0.2,1.7c0.2,0.2,0.5,0.4,0.9,0.4v0.5h-6v-0.5c0.5-0.1,0.9-0.2,1.1-0.5     c0.1-0.2,0.2-0.7,0.2-1.7v-6.7c0-0.9-0.1-1.5-0.2-1.7c-0.2-0.2-0.5-0.4-1-0.4v-0.5h4.8V174.3z"></path>
			<path class="st4" d="M264.5,183.1l0.4,0.3c-0.6,1.1-1.3,1.8-2.1,2.3c-0.8,0.5-1.7,0.8-2.7,0.8c-1.6,0-2.9-0.6-3.8-1.8     s-1.4-2.6-1.4-4.3c0-1.6,0.4-3,1.3-4.3c1-1.5,2.5-2.2,4.3-2.2c1.2,0,2.2,0.3,2.9,0.9c0.7,0.6,1.1,1.3,1.1,2.1     c0,0.5-0.1,0.9-0.4,1.2s-0.7,0.4-1.2,0.4s-0.9-0.2-1.2-0.5c-0.3-0.3-0.5-0.9-0.6-1.8c-0.1-0.5-0.2-0.9-0.4-1.1     c-0.2-0.2-0.4-0.3-0.7-0.3c-0.4,0-0.8,0.2-1,0.6c-0.4,0.7-0.7,1.7-0.7,3c0,1.1,0.2,2.2,0.5,3.2c0.4,1,0.8,1.8,1.5,2.3     c0.5,0.4,1,0.5,1.7,0.5c0.4,0,0.8-0.1,1.2-0.3C263.5,184,264,183.6,264.5,183.1z"></path>
			<path class="st4" d="M275.6,179.8h-6.5c0.1,1.6,0.5,2.8,1.3,3.7c0.6,0.7,1.3,1.1,2.1,1.1c0.5,0,1-0.1,1.4-0.4     c0.4-0.3,0.9-0.8,1.3-1.5l0.4,0.3c-0.6,1.3-1.4,2.2-2.1,2.8c-0.8,0.5-1.7,0.8-2.7,0.8c-1.8,0-3.1-0.7-4-2     c-0.7-1.1-1.1-2.4-1.1-4.1c0-2,0.5-3.6,1.6-4.7c1.1-1.2,2.3-1.8,3.8-1.8c1.2,0,2.2,0.5,3.1,1.5C275,176.4,275.5,177.8,275.6,179.8     z M272.4,178.9c0-1.4-0.1-2.3-0.2-2.8s-0.4-0.9-0.7-1.2c-0.2-0.2-0.4-0.2-0.7-0.2c-0.4,0-0.8,0.2-1.1,0.6     c-0.5,0.8-0.7,1.8-0.7,3.1v0.4L272.4,178.9L272.4,178.9z"></path>
		</g>
	</g>
</svg>
